<svg width="96" height="90" viewBox="0 0 96 90" fill="none" xmlns="http://www.w3.org/2000/svg">
<path d="M8 26.3893C8 3.09171 39.8612 -3.67348 50 24.4504M50 24.3668C60.1371 -3.6296 92 3.10436 92 26.2982C92 30.0596 90.6667 35.6667 90 38M21.86 58.3093C29.8695 67.9755 40.2601 77.2174 50 87C54.8434 82.1653 59.8351 77.4521 64.6618 72.7625L64.9121 72.4968C69.1671 68.2502 75.102 62.5972 78.1396 58.3125M16.7068 22.0313C18.0726 18.7899 20.5488 16.3688 23.5396 14.9647" stroke="#2396D4" stroke-width="2" stroke-linecap="round"/>
<path d="M24.6259 47.7441H21.8148L18.4516 43.4138L14.5 56L9.9018 31L6.73709 51L3.64789 47.7441H1M72.955 48.1834H76.4989L78.4255 32.1748L83 56L88.0046 43.8531L90.6598 48.1834H95" stroke="#2396D4" stroke-width="2" stroke-linecap="round" stroke-linejoin="round"/>
<path d="M30.9473 49V47.6816L35.6055 42.5059C36.4388 41.5749 37.002 40.8359 37.2949 40.2891C37.5944 39.7422 37.7441 39.1823 37.7441 38.6094C37.7441 37.8997 37.5358 37.304 37.1191 36.8223C36.7025 36.334 36.1523 36.0898 35.4688 36.0898C34.4857 36.0898 33.763 36.3405 33.3008 36.8418C32.8385 37.3431 32.6074 38.0527 32.6074 38.9707H30.7617L30.7422 38.9121C30.7096 37.6882 31.1133 36.6595 31.9531 35.8262C32.7995 34.9928 33.9714 34.5762 35.4688 34.5762C36.7513 34.5762 37.7702 34.9505 38.5254 35.6992C39.2871 36.4414 39.668 37.3887 39.668 38.541C39.668 39.3158 39.4368 40.0905 38.9746 40.8652C38.5189 41.64 37.8743 42.4766 37.041 43.375L33.3008 47.4473L33.3203 47.4961H38.3691L38.5254 45.8652H40.1562V49H30.9473ZM51.2891 43.5801C51.2891 45.3965 50.8854 46.7897 50.0781 47.7598C49.2708 48.7233 48.1673 49.2051 46.7676 49.2051C45.3743 49.2051 44.2708 48.7201 43.457 47.75C42.6432 46.7799 42.2363 45.39 42.2363 43.5801V40.2109C42.2363 38.401 42.64 37.0111 43.4473 36.041C44.2546 35.0645 45.3548 34.5762 46.748 34.5762C48.1478 34.5762 49.2546 35.0645 50.0684 36.041C50.8822 37.0111 51.2891 38.401 51.2891 40.2109V43.5801ZM49.3652 39.8008C49.3652 38.5703 49.1406 37.6458 48.6914 37.0273C48.2487 36.4023 47.6009 36.0898 46.748 36.0898C45.9082 36.0898 45.2669 36.4023 44.8242 37.0273C44.3815 37.6458 44.1602 38.5703 44.1602 39.8008V43.9707C44.1602 45.2012 44.3848 46.1322 44.834 46.7637C45.2832 47.3887 45.9277 47.7012 46.7676 47.7012C47.6204 47.7012 48.265 47.3887 48.7012 46.7637C49.1439 46.1387 49.3652 45.2077 49.3652 43.9707V39.8008ZM53.6426 47.7695L55.8398 47.4961V36.8418L53.6035 36.8809V35.6797L57.7637 34.7812V47.4961L59.9512 47.7695V49H53.6426V47.7695ZM61.8848 47.7695L64.082 47.4961V36.8418L61.8457 36.8809V35.6797L66.0059 34.7812V47.4961L68.1934 47.7695V49H61.8848V47.7695Z" fill="#2396D4"/>
</svg>
