<svg width="94" height="91" viewBox="0 0 94 91" fill="none" xmlns="http://www.w3.org/2000/svg">
<path d="M67.5195 50.6577C67.5809 50.6577 76.0957 57.9555 84.8193 58.0426C84.936 58.8402 85 69.1342 85 69.9645C85 79.4188 67.5195 89 67.5195 89M67.4539 50.6574C67.3925 50.6574 58.8777 57.9553 50.1541 58.0423C50.0375 58.8399 49.9734 69.134 49.9734 69.9643C49.9734 79.4186 67.4539 88.9997 67.4539 88.9997M69.4317 51.4883V1H13V75.507H51.4319M25.6486 20.9108H56.6841M31.209 27.9627H51.1226M34.7944 57.8256H43.878M67.5844 62.1726V77.7177M75.4653 69.9452H59.7034" stroke="#2396D4" stroke-width="2" stroke-linecap="square" stroke-linejoin="bevel"/>
</svg>
