<svg width="94" height="90" viewBox="0 0 94 90" fill="none" xmlns="http://www.w3.org/2000/svg">
<path d="M65.6319 87.6585C66.4879 87.5396 67.3423 87.413 68.195 87.279L77.1817 85.8612C80.5336 85.3325 83 73.1403 83 69.7938C83 67.1058 81.3964 64.6692 78.9065 63.5741L69.0299 59.0221M69.0299 59.0221L56.9503 53.4549C56.0842 53.0552 55.9084 51.9115 56.6266 51.2881C63.2765 45.5083 64.7868 34.366 64.7868 25.8328M69.0299 59.0221C68.6728 60.4705 68.0173 61.996 67.0227 63.5741M69.0299 59.0221C70.5308 52.9342 66.7576 48.211 60.7159 46.6863M24.4805 57.5563L33.4074 53.4063C34.3627 53.0569 34.5687 51.8419 33.8085 51.1733C32.3634 49.9013 31.1905 48.3784 30.2398 46.6863M24.4805 57.5563L14.1909 62.3399C13.8966 62.4765 13.6073 62.6323 13.3366 62.8108C10.8323 64.4572 9 66.3509 9 69.1754C9 72.6066 11.511 84.8801 14.9419 85.454L22.9137 87.062C30.4915 88.3314 38.1611 89 45.8453 89C68.195 89 80.0568 69.1754 67.0227 63.5741M24.4805 57.5563C24.4247 53.0038 26.2935 48.7915 30.2398 46.6863M24.4805 57.5563C24.5468 62.9552 27.32 68.8328 32.5455 72.2421M67.0227 63.5741C57.3695 58.5218 49.9994 65.3431 52.3636 81.04M26.2849 25.8337C26.2849 32.4547 26.8467 40.6474 30.2398 46.6863M59.875 55.0054C56.2583 58.4183 51.3745 60.5116 46 60.5116C40.4143 60.5116 35.3587 58.2506 31.7045 54.597M46 11.4948V16.1032M46 16.1032V20.7116M46 16.1032H40.9545M46 16.1032H51.4659M42.6364 76.0126C42.6364 79.0206 40.1892 81.459 37.1705 81.459C34.1517 81.459 31.7045 79.0206 31.7045 76.0126C31.7045 73.0047 34.1517 70.5663 37.1705 70.5663C40.1892 70.5663 42.6364 73.0047 42.6364 76.0126ZM35.9091 76.0126C35.9091 76.7068 36.4738 77.2695 37.1705 77.2695C37.8671 77.2695 38.4318 76.7068 38.4318 76.0126C38.4318 75.3185 37.8671 74.7558 37.1705 74.7558C36.4738 74.7558 35.9091 75.3185 35.9091 76.0126ZM26.2385 26.1579C26.9393 27.4148 33.3865 28.2527 45.5796 28.2527C58.0296 28.2527 63.2387 27.4148 64.9206 26.5769C65.4812 20.9909 65.2569 7.22153 64.9206 5.21058C64.5001 2.6969 27.5 1.85901 26.6591 5.21058C25.8182 8.56216 25.8181 24.4821 26.2385 26.1579Z" stroke="#2396D4" stroke-width="2" stroke-linecap="square" stroke-linejoin="bevel"/>
</svg>
