<svg width="94" height="90" viewBox="0 0 94 90" fill="none" xmlns="http://www.w3.org/2000/svg">
<path d="M37.0963 37.8742L37.8023 37.166L37.7815 37.1452L37.7595 37.1258L37.0963 37.8742ZM41.9547 42.717L42.6607 42.0087L41.9547 42.717ZM44.1063 42.717L44.8122 43.4252L44.1063 42.717ZM47.0213 39.8113L47.7273 40.5196L48.4378 39.8113L47.7273 39.1031L47.0213 39.8113ZM40.0113 32.8239L40.7173 32.1157L40.0113 31.412L39.3054 32.1157L40.0113 32.8239ZM37.0963 35.7296L36.3904 35.0213L37.0963 35.7296ZM35.5593 59.7538C35.9513 60.1428 36.5845 60.1404 36.9735 59.7484C37.3625 59.3563 37.3601 58.7232 36.9681 58.3342L35.5593 59.7538ZM21.4212 42.9065C21.0292 42.5175 20.3961 42.5199 20.007 42.9119C19.618 43.304 19.6205 43.9371 20.0125 44.3261L21.4212 42.9065ZM26.2116 49.029C26.6028 48.6391 26.6038 48.0059 26.2139 47.6148C25.824 47.2236 25.1908 47.2226 24.7997 47.6125L26.2116 49.029ZM17.177 56.6226L16.471 55.9144L17.177 56.6226ZM17.177 60.2201L16.447 60.9036L16.4588 60.9162L16.471 60.9284L17.177 60.2201ZM19.6062 62.6415L18.9002 63.3497L18.9002 63.3497L19.6062 62.6415ZM23.2153 62.6415L23.8964 63.3736L23.909 63.3619L23.9212 63.3497L23.2153 62.6415ZM32.2499 55.0479C32.641 54.658 32.6421 54.0248 32.2522 53.6337C31.8623 53.2425 31.2291 53.2415 30.838 53.6314L32.2499 55.0479ZM64.8012 26.5811C64.41 26.1912 63.7769 26.1922 63.387 26.5833C62.9971 26.9745 62.9981 27.6077 63.3892 27.9975L64.8012 26.5811ZM66.7326 29.9182L67.4386 29.21H67.4386L66.7326 29.9182ZM69.8559 29.9182L69.1499 29.21L69.8559 29.9182ZM71.938 27.8428L72.644 28.551L71.938 27.8428ZM71.938 24.7296L72.644 24.0213V24.0213L71.938 24.7296ZM70.0066 21.3924C69.6154 21.0025 68.9823 21.0035 68.5924 21.3947C68.2025 21.7858 68.2035 22.419 68.5947 22.8089L70.0066 21.3924ZM67.1489 63.8868L67.8549 64.5951L67.8571 64.5928L67.1489 63.8868ZM27.0326 63.8868L26.3266 64.595H26.3266L27.0326 63.8868ZM38.7623 31.5786L39.4683 30.8704L39.4411 30.8433L39.4119 30.8183L38.7623 31.5786ZM48.2709 41.0566L47.5649 41.7648L48.2709 41.0566ZM49.9366 41.0566L49.2306 40.3484L49.2034 40.3755L49.1784 40.4046L49.9366 41.0566ZM76.1025 14.9748L75.3965 14.2666L76.1025 14.9748ZM76.1025 13.3145L75.3939 14.0201L75.4223 14.0486L75.4529 14.0747L76.1025 13.3145ZM66.6633 3.83647L67.3719 3.13081L67.3693 3.12823L66.6633 3.83647ZM64.9976 3.83647L65.7026 4.54565L65.7303 4.5181L65.7558 4.48847L64.9976 3.83647ZM38.7623 29.9182L38.0573 29.2091L38.0564 29.21L38.7623 29.9182ZM72.285 1.41509L72.991 0.70685L72.9702 0.686108L72.9482 0.666624L72.285 1.41509ZM78.5315 7.64151L79.2375 6.93327V6.93326L78.5315 7.64151ZM78.5315 9.78616L79.0544 10.6386L79.1544 10.5772L79.2375 10.4944L78.5315 9.78616ZM74.9224 12L74.2165 12.7082L74.7741 13.2641L75.4453 12.8524L74.9224 12ZM67.9125 5.01258L67.0616 4.48726L66.6453 5.16146L67.2065 5.72082L67.9125 5.01258ZM70.1334 1.41509L69.4275 0.70685L69.3443 0.789797L69.2825 0.889773L70.1334 1.41509ZM11.7019 62.0675C11.3085 61.6799 10.6753 61.6846 10.2877 62.078C9.90006 62.4714 9.90474 63.1045 10.2981 63.4922L11.7019 62.0675ZM16.3364 69.4418C16.7298 69.8295 17.363 69.8248 17.7506 69.4314C18.1382 69.038 18.1335 68.4048 17.7401 68.0172L16.3364 69.4418ZM67.4959 89V90H68.7093L68.4774 88.8089L67.4959 89ZM33.8342 89L32.8555 88.7948L32.6028 90H33.8342V89ZM34.8059 84.3648L35.7846 84.5699L35.7855 84.5658L34.8059 84.3648ZM66.5936 84.3648L67.5752 84.1737L67.5721 84.158L67.5686 84.1425L66.5936 84.3648ZM65.402 19.6957C65.7931 20.0856 66.4263 20.0845 66.8162 19.6934C67.2061 19.3022 67.2051 18.6691 66.8139 18.2792L65.402 19.6957ZM61.6085 13.0905C61.2174 12.7006 60.5842 12.7016 60.1943 13.0928C59.8044 13.4839 59.8054 14.1171 60.1966 14.507L61.6085 13.0905ZM45.1065 79.1069V71.9811H43.1065V79.1069H45.1065ZM56.1546 70.3208V79.1069H58.1546V70.3208H56.1546ZM36.3904 38.5825L41.2487 43.4252L42.6607 42.0087L37.8023 37.166L36.3904 38.5825ZM41.2487 43.4252C42.2636 44.4369 43.7973 44.4369 44.8122 43.4252L43.4003 42.0087C43.1659 42.2424 42.8951 42.2424 42.6607 42.0087L41.2487 43.4252ZM44.8122 43.4252L47.7273 40.5196L46.3153 39.1031L43.4003 42.0087L44.8122 43.4252ZM47.7273 39.1031L40.7173 32.1157L39.3054 33.5322L46.3153 40.5196L47.7273 39.1031ZM39.3054 32.1157L36.3904 35.0213L37.8023 36.4378L40.7173 33.5322L39.3054 32.1157ZM36.3904 35.0213C35.3984 36.0101 35.3347 37.6494 36.4331 38.6227L37.7595 37.1258C37.6086 36.9921 37.545 36.6943 37.8023 36.4378L36.3904 35.0213ZM36.9681 58.3342L21.4212 42.9065L20.0125 44.3261L35.5593 59.7538L36.9681 58.3342ZM24.7997 47.6125L16.471 55.9144L17.883 57.3309L26.2116 49.029L24.7997 47.6125ZM16.471 55.9144C15.0943 57.2866 15.1283 59.4952 16.447 60.9036L17.907 59.5366C17.2824 58.8696 17.3163 57.8957 17.883 57.3309L16.471 55.9144ZM16.471 60.9284L18.9002 63.3497L20.3122 61.9333L17.883 59.5119L16.471 60.9284ZM18.9002 63.3497C20.2751 64.7202 22.4853 64.6865 23.8964 63.3736L22.5341 61.9094C21.8631 62.5336 20.8807 62.4999 20.3122 61.9333L18.9002 63.3497ZM23.9212 63.3497L32.2499 55.0479L30.838 53.6314L22.5093 61.9333L23.9212 63.3497ZM63.3892 27.9975L66.0267 30.6265L67.4386 29.21L64.8012 26.5811L63.3892 27.9975ZM66.0267 30.6265C67.2498 31.8457 69.3387 31.8457 70.5618 30.6265L69.1499 29.21C68.7073 29.6512 67.8812 29.6512 67.4386 29.21L66.0267 30.6265ZM70.5618 30.6265L72.644 28.551L71.2321 27.1345L69.1499 29.21L70.5618 30.6265ZM72.644 28.551C73.8689 27.33 73.8689 25.2423 72.644 24.0213L71.2321 25.4378C71.6729 25.8772 71.6729 26.6951 71.2321 27.1345L72.644 28.551ZM72.644 24.0213L70.0066 21.3924L68.5947 22.8089L71.2321 25.4378L72.644 24.0213ZM70.7433 30.0702C78.8069 38.1728 77.2621 52.3263 66.4407 63.1808L67.8571 64.5928C79.1066 53.3089 81.3098 37.8524 72.1609 28.6594L70.7433 30.0702ZM66.443 63.1786C55.7283 73.8587 38.4531 73.8587 27.7385 63.1786L26.3266 64.595C37.8217 76.0532 56.3597 76.0532 67.8549 64.595L66.443 63.1786ZM27.7385 63.1786L25.1705 60.6188L23.7586 62.0353L26.3266 64.595L27.7385 63.1786ZM38.0564 32.2869L47.5649 41.7648L48.9768 40.3484L39.4683 30.8704L38.0564 32.2869ZM47.5649 41.7648C48.4082 42.6054 49.8513 42.6896 50.6948 41.7086L49.1784 40.4046C49.1753 40.4081 49.1662 40.4198 49.1298 40.4198C49.091 40.4198 49.0325 40.4038 48.9768 40.3484L47.5649 41.7648ZM50.6426 41.7648L76.8084 15.6831L75.3965 14.2666L49.2306 40.3484L50.6426 41.7648ZM76.8084 15.6831C77.6534 14.8409 77.7381 13.3966 76.7521 12.5542L75.4529 14.0747C75.4566 14.0779 75.4669 14.0855 75.4669 14.1187C75.4669 14.1544 75.4521 14.2112 75.3965 14.2666L76.8084 15.6831ZM76.811 12.6088L67.3719 3.13082L65.9548 4.54213L75.3939 14.0201L76.811 12.6088ZM67.3693 3.12823C66.526 2.28765 65.0829 2.20349 64.2394 3.18447L65.7558 4.48847C65.7589 4.48493 65.768 4.47327 65.8044 4.47327C65.8432 4.47327 65.9017 4.48924 65.9574 4.54472L67.3693 3.12823ZM64.2926 3.12729L38.0573 29.2091L39.4674 30.6274L65.7026 4.54565L64.2926 3.12729ZM38.0564 29.21C37.2114 30.0522 37.1267 31.4965 38.1127 32.3389L39.4119 30.8183C39.4082 30.8152 39.3979 30.8075 39.3979 30.7744C39.3979 30.7387 39.4127 30.6819 39.4683 30.6265L38.0564 29.21ZM71.5791 2.12334L77.8255 8.34975L79.2375 6.93326L72.991 0.70685L71.5791 2.12334ZM77.8255 8.34975C78.0582 8.58161 78.0582 8.84606 77.8255 9.07792L79.2375 10.4944C80.2542 9.48098 80.2542 7.94669 79.2375 6.93327L77.8255 8.34975ZM78.0086 8.93375L74.3996 11.1476L75.4453 12.8524L79.0544 10.6386L78.0086 8.93375ZM75.6284 11.2918L68.6184 4.30433L67.2065 5.72082L74.2165 12.7082L75.6284 11.2918ZM68.7634 5.5379L70.9843 1.94042L69.2825 0.889773L67.0616 4.48726L68.7634 5.5379ZM70.8394 2.12334C70.9831 1.98014 71.3517 1.92422 71.6219 2.16356L72.9482 0.666624C71.969 -0.200952 70.3943 -0.256873 69.4275 0.70685L70.8394 2.12334ZM10.2981 63.4922L16.3364 69.4418L17.7401 68.0172L11.7019 62.0675L10.2981 63.4922ZM67.4959 88H33.8342V90H67.4959V88ZM34.8129 89.2052L35.7846 84.5699L33.8272 84.1596L32.8555 88.7948L34.8129 89.2052ZM35.7855 84.5658C36.3134 81.9932 38.6057 80.1069 41.33 80.1069V78.1069C37.669 78.1069 34.5477 80.6483 33.8263 84.1638L35.7855 84.5658ZM41.33 80.1069H60.0695V78.1069H41.33V80.1069ZM60.0695 80.1069C62.7139 80.1069 65.0256 81.9861 65.6186 84.5871L67.5686 84.1425C66.7735 80.6554 63.6715 78.1069 60.0695 78.1069V80.1069ZM65.612 84.5558L66.5143 89.1911L68.4774 88.8089L67.5752 84.1737L65.612 84.5558ZM66.8139 18.2792L61.6085 13.0905L60.1966 14.507L65.402 19.6957L66.8139 18.2792Z" fill="#2396D4"/>
</svg>
