<svg width="96" height="90" viewBox="0 0 96 90" fill="none" xmlns="http://www.w3.org/2000/svg">
<path d="M21.5964 33.3696V4.10583C21.5964 2.38037 22.9927 1 24.7382 1H91.7636C93.5091 1 94.9054 2.38037 94.9054 4.10583V51.7975C94.9054 53.523 93.5091 54.9034 91.7636 54.9034H41.7738M29.1368 42.4801V8.1089H87.4349V47.8635H38.0037M51.2691 62.4954V54.9034M65.2327 54.9034V62.4954M41.7739 62.4954H74.8677C76.8226 62.4954 78.4284 64.0828 78.4284 66.0153V69.7423C78.4284 71.6748 76.8226 73.2623 74.8677 73.2623L53.2939 72.8482M8.6801 59.3206C9.4481 56.4218 11.2634 53.2469 14.0561 50.4862C16.8488 47.7255 19.9906 45.931 22.9928 45.1718M1 57.7331C2.04727 53.592 4.70036 49.0368 8.61018 45.1718C12.52 41.3067 17.0582 38.684 21.3171 37.6488M26.4835 72.9862L31.5803 67.8788M49.1744 85.2715L52.8748 88.9295H76.1243C82.3381 88.9295 87.4348 83.9602 87.4348 77.7485V54.9034M19.6414 56.0077C14.6843 60.908 12.3803 69.3972 12.3803 69.3972L15.6617 72.6411C16.7788 73.7454 18.4544 74.0905 19.9206 73.4003C23.3417 71.8129 26.4835 72.9172 26.4835 72.9172L38.9112 85.2025C41.7737 88.0322 46.3817 88.0322 49.1744 85.2025C52.037 82.3727 52.037 77.8175 49.1744 75.0567L36.7468 62.7715C36.7468 62.7715 35.6297 59.7347 37.2355 56.2837C37.9337 54.9034 37.5846 53.1779 36.4675 52.0736L33.1861 48.8298C33.1861 48.8988 24.4588 51.2454 19.6414 56.0077Z" stroke="#2396D4" stroke-width="2" stroke-miterlimit="10" stroke-linecap="round" stroke-linejoin="round"/>
</svg>
