<svg width="94" height="90" viewBox="0 0 94 90" fill="none" xmlns="http://www.w3.org/2000/svg">
<path d="M60.0832 55.0122V53.7998L63.073 50.5942C63.5046 50.0991 63.8114 49.6823 63.9934 49.3438C64.1754 49.001 64.2663 48.6836 64.2663 48.3916C64.2663 48.0023 64.1605 47.6849 63.949 47.4395C63.7416 47.1898 63.4454 47.0649 63.0603 47.0649C62.6329 47.0649 62.307 47.2109 62.0827 47.5029C61.8627 47.7907 61.7527 48.1758 61.7527 48.6582H59.9499L59.9372 48.6201C59.9161 47.7865 60.189 47.0819 60.7561 46.5063C61.3274 45.9266 62.0954 45.6367 63.0603 45.6367C64.0124 45.6367 64.7615 45.8843 65.3074 46.3794C65.8533 46.8745 66.1262 47.5347 66.1262 48.3599C66.1262 48.9185 65.9717 49.4347 65.6628 49.9087C65.3581 50.3826 64.8503 51.0005 64.1394 51.7622L62.4953 53.5586L62.508 53.5903H64.9075L64.9836 52.6763H66.3928V55.0122H60.0832Z" fill="#2396D4"/>
<path d="M72.7405 51.5718H73.7878V52.8032H72.7405V53.7109L73.7243 53.9014V55.0122H69.9031V53.9014L70.8933 53.7109V52.8032H67.1228L67.0339 51.8955L70.8742 45.77H72.7405V51.5718ZM68.7668 51.5718H70.8933V48.2393L70.8552 48.2266L70.7029 48.4932L68.7668 51.5718Z" fill="#2396D4"/>
<path d="M85.1952 62.8838C84.0526 64.2217 83.2713 65.4692 82.8514 66.6265C82.4364 67.7837 82.1385 69.1802 81.9579 70.8159L81.8553 71.8999H79.7167L79.8192 70.8159C79.9852 69.2485 80.3417 67.8105 80.8885 66.502C81.4354 65.1885 82.1849 63.9824 83.1371 62.8838H79.3797L79.2992 63.9385H77.6586V61.2358H85.1952V62.8838Z" fill="#2396D4"/>
<path d="M45.0277 79.6201V84.24M45.0277 6.34395V10.9638M10.6995 44.2805H6.07969M91.722 60.5518C89.861 68.4609 80.9842 89.0012 47.2199 89.0012C20.9515 89.0012 -0.523918 68.566 1.08488 42.2605C2.38662 20.9739 19.1092 3.46505 40.3213 1.24306C50.7548 0.150678 59.3869 2.91048 65.5866 6.12343M45.0277 1.00114C64.9856 1.00114 81.8403 14.2893 87.2268 32.4997M47.2301 42.0697L56.5601 31.8288M45.0277 19.3781V41.6752M68.9252 65.7493L83.4275 51.247M65.2033 79.4379L70.4838 76.1125L67.5045 70.8411M89.1623 67.5C89.8064 66.1389 90.4137 64.7465 90.9361 63.3433C91.7449 61.1705 92.187 58.8192 92.187 56.3647C92.187 45.316 83.2303 36.3594 72.1817 36.3594C61.133 36.3594 52.1764 45.316 52.1764 56.3647C52.1764 60.0898 53.1945 63.5772 54.9678 66.5637C55.8696 68.0825 56.9667 69.4717 58.2245 70.6968C60.1045 72.5279 62.3434 73.9922 64.8258 74.9743C66.2722 75.5465 67.8013 75.9549 69.3902 76.1768M47.9792 44.2805C47.9792 44.9773 47.7024 45.6455 47.2098 46.1382C46.7171 46.6309 46.0488 46.9077 45.352 46.9077C44.6553 46.9077 43.987 46.6309 43.4943 46.1382C43.0016 45.6455 42.7248 44.9773 42.7248 44.2805C42.7248 43.5837 43.0016 42.9155 43.4943 42.4228C43.987 41.9301 44.6553 41.6533 45.352 41.6533C46.0488 41.6533 46.7171 41.9301 47.2098 42.4228C47.7024 42.9155 47.9792 43.5837 47.9792 44.2805Z" stroke="#2396D4" stroke-width="2" stroke-linecap="square" stroke-linejoin="bevel"/>
</svg>

