<svg width="26" height="27" viewBox="0 0 26 27" fill="none" xmlns="http://www.w3.org/2000/svg">
<path d="M13 3.19941V6.93842M11.1538 5.10557H14.7752M7.88757 6.05865L7.53254 2.90616C7.46154 2.31965 10.2308 1 12.929 1C15.6982 1 18.3965 2.31965 18.3254 2.90616L17.9704 6.05865M1.42603 26L1 23.1408V22.6276C1 21.5279 2.2781 20.868 3.27219 20.7214C4.19526 20.5748 7.74556 19.8416 8.95266 19.1818H9.02367C10.5858 25.7801 15.4142 25.7801 16.9763 19.1818H17.0473C18.1834 19.915 21.7337 20.5748 22.7278 20.7214C23.7929 20.9413 25 21.5279 25 22.6276V23.1408L24.574 26M20.5976 26H17.0473M17.3314 14.4897C15.8402 19.8416 10.1598 19.8416 8.66864 14.4897H8.59763C8.52663 14.4897 8.52663 14.4897 8.45562 14.4897C8.10059 14.4897 7.81657 14.2698 7.60355 13.9032C7.31953 13.4633 7.17752 12.8768 7.17752 12.3636C7.17752 11.7038 7.39053 11.1173 7.95858 11.1173C8.31361 11.1173 8.2426 10.6041 8.2426 10.0909C8.2426 8.9912 8.45563 8.40469 8.73965 8.18475C9.23669 7.59824 10.0888 8.18475 10.6568 8.62463C11.4379 9.28446 11.6509 9.65103 13 9.65103C14.3491 9.65103 14.5621 9.21114 15.3432 8.62463C15.9112 8.18475 16.7633 7.59824 17.2604 8.18475C17.5444 8.40469 17.7574 8.9912 17.7574 10.0909C17.7574 10.6774 17.6154 11.1173 18.0414 11.1173C18.6095 11.1173 18.8225 11.7038 18.8225 12.3636C18.8225 12.8768 18.6805 13.4633 18.3965 13.9032C18.1834 14.2698 17.8994 14.4897 17.5444 14.4897C17.4734 14.4897 17.4734 14.4897 17.4024 14.4897H17.3314Z" stroke="#C6007F" stroke-miterlimit="22.9256" stroke-linecap="round" stroke-linejoin="round"/>
</svg>
