<svg width="30" height="27" viewBox="0 0 30 27" fill="none" xmlns="http://www.w3.org/2000/svg">
<path d="M15 19.7571C19.786 19.7571 24.12 17.2621 28 12.2721C24.12 7.28211 19.786 4.78711 15 4.78711C10.214 4.78711 5.88 7.28211 2 12.2721C5.88 17.2621 10.214 19.7571 15 19.7571Z" stroke="#A8A2A5" stroke-width="2"/>
<path d="M15 17.394C13.2238 17.394 11.5204 16.6884 10.2645 15.4325C9.00855 14.1766 8.30298 12.4732 8.30298 10.697C8.30298 8.92084 9.00855 7.21744 10.2645 5.96151C11.5204 4.70557 13.2238 4 15 4C16.7761 4 18.4795 4.70557 19.7355 5.96151C20.9914 7.21744 21.697 8.92084 21.697 10.697C21.697 12.4732 20.9914 14.1766 19.7355 15.4325C18.4795 16.6884 16.7761 17.394 15 17.394ZM13.424 12.667C13.7905 12.674 14.1548 12.6078 14.4954 12.4724C14.8361 12.3369 15.1464 12.1349 15.408 11.8782C15.6697 11.6214 15.8776 11.3151 16.0195 10.9771C16.1614 10.639 16.2345 10.2761 16.2345 9.9095C16.2345 9.54289 16.1614 9.17997 16.0195 8.84194C15.8776 8.50391 15.6697 8.19757 15.408 7.94082C15.1464 7.68407 14.8361 7.48207 14.4954 7.34663C14.1548 7.21118 13.7905 7.14502 13.424 7.152C12.7017 7.16575 12.0137 7.46232 11.5078 7.97796C11.0019 8.49359 10.7185 9.18713 10.7185 9.9095C10.7185 10.6319 11.0019 11.3254 11.5078 11.841C12.0137 12.3567 12.7017 12.6532 13.424 12.667Z" fill="#A8A2A5"/>
</svg>
