<svg width="15" height="26" viewBox="0 0 15 26" fill="none" xmlns="http://www.w3.org/2000/svg">
<path opacity="0.13" fill-rule="evenodd" clip-rule="evenodd" d="M7.30037 3.795C8.79037 3.795 10.0004 4.996 10.0004 6.475C10.0004 7.952 8.79037 9.155 7.30037 9.155C5.81337 9.155 4.60037 7.952 4.60037 6.475C4.60037 4.996 5.81337 3.795 7.30037 3.795ZM7.30037 12.948C3.70437 12.948 0.780369 10.044 0.780369 6.475C0.780369 2.904 3.70437 0 7.30037 0C10.8984 0 13.8224 2.904 13.8224 6.475C13.8224 10.045 10.8984 12.948 7.30037 12.948ZM9.95637 18.233L13.6014 21.853C14.3484 22.593 14.3484 23.794 13.6014 24.535C12.8554 25.275 11.6464 25.275 10.9014 24.535L7.31637 20.978L3.73637 24.535C3.36237 24.905 2.87237 25.09 2.38337 25.09C1.89537 25.09 1.40637 24.905 1.03337 24.535C0.856187 24.3595 0.715521 24.1507 0.619491 23.9206C0.523461 23.6904 0.47397 23.4436 0.473877 23.1942C0.473784 22.9448 0.523091 22.6979 0.61895 22.4677C0.714808 22.2375 0.855319 22.0286 1.03237 21.853L4.67837 18.233C3.33782 17.9295 2.05771 17.4032 0.891369 16.676C0.679571 16.5442 0.495963 16.3718 0.351133 16.1686C0.206303 15.9655 0.103118 15.7357 0.0475262 15.4925C-0.00806566 15.2494 -0.0149633 14.9976 0.027231 14.7517C0.0694254 14.5058 0.159877 14.2707 0.293369 14.06C0.564614 13.6328 0.993815 13.3303 1.48729 13.2185C1.98077 13.1066 2.49846 13.1945 2.92737 13.463C4.24571 14.2805 5.76613 14.7137 7.31737 14.7137C8.86861 14.7137 10.389 14.2805 11.7074 13.463C12.1363 13.1948 12.654 13.1071 13.1474 13.2189C13.6408 13.3307 14.0699 13.6331 14.3414 14.06C14.4748 14.2708 14.5652 14.5059 14.6073 14.7518C14.6494 14.9978 14.6425 15.2496 14.5868 15.4928C14.5311 15.736 14.4278 15.9657 14.2829 16.1688C14.1379 16.3719 13.9542 16.5443 13.7424 16.676C12.5765 17.4034 11.2967 17.9297 9.95637 18.233Z" fill="black"/>
</svg>
