<svg width="46" height="46" viewBox="0 0 46 46" fill="none" xmlns="http://www.w3.org/2000/svg">
<g clip-path="url(#clip0_147_1125)">
<path opacity="0.13" d="M23 45C35.1503 45 45 35.1503 45 23C45 10.8497 35.1503 1 23 1C10.8497 1 1 10.8497 1 23C1 35.1503 10.8497 45 23 45Z" stroke="black" stroke-width="2"/>
<path opacity="0.13" fill-rule="evenodd" clip-rule="evenodd" d="M22.983 14.2501C24.473 14.2501 25.683 15.4511 25.683 16.9301C25.683 18.4071 24.473 19.6101 22.983 19.6101C21.496 19.6101 20.283 18.4071 20.283 16.9301C20.283 15.4511 21.496 14.2501 22.983 14.2501ZM22.983 23.4031C19.387 23.4031 16.463 20.4991 16.463 16.9301C16.463 13.3591 19.387 10.4551 22.983 10.4551C26.581 10.4551 29.505 13.3591 29.505 16.9301C29.505 20.5001 26.581 23.4031 22.983 23.4031ZM25.639 28.6881L29.284 32.3081C30.031 33.0481 30.031 34.2491 29.284 34.9901C28.538 35.7301 27.329 35.7301 26.584 34.9901L22.999 31.4331L19.419 34.9901C19.045 35.3601 18.555 35.5451 18.066 35.5451C17.578 35.5451 17.089 35.3601 16.716 34.9901C16.5388 34.8146 16.3981 34.6058 16.3021 34.3757C16.2061 34.1455 16.1566 33.8986 16.1565 33.6493C16.1564 33.3999 16.2057 33.153 16.3016 32.9228C16.3974 32.6926 16.5379 32.4837 16.715 32.3081L20.361 28.6881C19.0204 28.3846 17.7403 27.8583 16.574 27.1311C16.3622 26.9993 16.1786 26.8268 16.0338 26.6237C15.8889 26.4206 15.7857 26.1908 15.7301 25.9476C15.6746 25.7044 15.6677 25.4526 15.7098 25.2068C15.752 24.9609 15.8425 24.7258 15.976 24.5151C16.2472 24.0879 16.6764 23.7854 17.1699 23.6736C17.6634 23.5617 18.1811 23.6496 18.61 23.9181C19.9283 24.7356 21.4487 25.1688 23 25.1688C24.5512 25.1688 26.0717 24.7356 27.39 23.9181C27.819 23.6499 28.3366 23.5621 28.83 23.674C29.3234 23.7858 29.7526 24.0881 30.024 24.5151C30.1574 24.7259 30.2478 24.961 30.2899 25.2069C30.3321 25.4528 30.3251 25.7047 30.2694 25.9478C30.2137 26.191 30.1104 26.4208 29.9655 26.6239C29.8206 26.827 29.6369 26.9993 29.425 27.1311C28.2591 27.8585 26.9793 28.3848 25.639 28.6881Z" fill="black"/>
</g>
<defs>
<clipPath id="clip0_147_1125">
<rect width="46" height="46" fill="white"/>
</clipPath>
</defs>
</svg>
