<svg width="22" height="23" viewBox="0 0 22 23" fill="none" xmlns="http://www.w3.org/2000/svg">
<path d="M11.7871 1C12.9226 2.27059 13.6323 3.96471 13.6323 5.87059C13.6323 7.77647 12.9226 9.47059 11.7871 10.7412C10.6516 12.0118 9.01935 12.7176 7.31613 12.7176C5.54194 12.7176 3.98065 11.9412 2.84516 10.7412C1.70968 9.47059 1 7.77647 1 5.87059C1 3.96471 1.70968 2.27059 2.84516 1M18.7419 16.2471C18.7419 19.1412 16.1871 21.5412 12.9935 21.5412C9.8 21.5412 7.24516 19.0706 7.24516 16.1765V12.7176M18.8129 10.3176C20.3032 10.3176 21.5097 11.5176 21.5097 13C21.5097 14.4824 20.3032 15.6824 18.8129 15.6824C17.3226 15.6824 16.1161 14.4824 16.1161 13C16.0452 11.5176 17.2516 10.3176 18.8129 10.3176Z" stroke="#C6007F" stroke-miterlimit="22.9256" stroke-linecap="round" stroke-linejoin="round"/>
</svg>
