<svg width="42" height="40" viewBox="0 0 42 40" fill="none" xmlns="http://www.w3.org/2000/svg">
<path d="M40.0866 20C40.0866 30.4837 31.4966 39 20.8785 39C10.2604 39 1.67041 30.4837 1.67041 20C1.67041 9.51632 10.2604 1 20.8785 1C31.4966 1 40.0866 9.51632 40.0866 20Z" stroke="black" stroke-width="2"/>
<path fill-rule="evenodd" clip-rule="evenodd" d="M32.5058 25.794C32.9999 23.9159 32.9999 20.0212 32.9999 20.0212C32.9999 20.0212 33.0198 16.1071 32.5058 14.229C32.2289 13.201 31.4184 12.3902 30.3904 12.1136C28.5124 11.5996 21.0001 11.5996 21.0001 11.5996C21.0001 11.5996 13.4878 11.5996 11.6098 12.094C10.6014 12.3706 9.77098 13.201 9.49435 14.229C9 16.1071 9 20.0015 9 20.0015C9 20.0015 9 23.9159 9.49435 25.774C9.77127 26.802 10.5818 27.6128 11.6098 27.8895C13.5075 28.4034 21.0001 28.4034 21.0001 28.4034C21.0001 28.4034 28.5124 28.4034 30.3904 27.9091C31.4184 27.6325 32.2289 26.8219 32.5058 25.794ZM24.855 20.0012L18.608 23.5991V16.4033L24.855 20.0012Z" fill="black"/>
</svg>
