<svg width="46" height="46" viewBox="0 0 46 46" fill="none" xmlns="http://www.w3.org/2000/svg">
<path opacity="0.13" d="M23 45C35.1503 45 45 35.1503 45 23C45 10.8497 35.1503 1 23 1C10.8497 1 1 10.8497 1 23C1 35.1503 10.8497 45 23 45Z" stroke="black" stroke-width="2"/>
<path opacity="0.13" fill-rule="evenodd" clip-rule="evenodd" d="M23 13.572C26.07 13.572 26.434 13.584 27.647 13.639C28.768 13.69 29.377 13.878 29.782 14.035C30.319 14.244 30.702 14.493 31.105 14.895C31.507 15.298 31.756 15.681 31.965 16.218C32.122 16.623 32.31 17.232 32.361 18.353C32.416 19.566 32.428 19.929 32.428 23C32.428 26.07 32.416 26.434 32.361 27.647C32.31 28.768 32.122 29.377 31.965 29.782C31.756 30.319 31.507 30.702 31.105 31.105C30.7338 31.4869 30.2817 31.7808 29.782 31.965C29.377 32.122 28.768 32.31 27.647 32.361C26.434 32.416 26.071 32.428 23 32.428C19.93 32.428 19.565 32.416 18.353 32.361C17.232 32.31 16.623 32.122 16.218 31.965C15.7183 31.7808 15.2662 31.4869 14.895 31.105C14.5131 30.7338 14.2192 30.2817 14.035 29.782C13.878 29.377 13.69 28.768 13.639 27.647C13.584 26.434 13.572 26.071 13.572 23C13.572 19.93 13.584 19.566 13.639 18.353C13.69 17.232 13.878 16.623 14.035 16.218C14.244 15.681 14.493 15.298 14.895 14.895C15.2662 14.5131 15.7183 14.2192 16.218 14.035C16.623 13.878 17.232 13.69 18.353 13.639C19.566 13.584 19.929 13.572 23 13.572ZM23 11.5C26.123 11.5 26.515 11.513 27.741 11.57C28.965 11.625 29.801 11.82 30.533 12.104C31.3003 12.3926 31.9955 12.8451 32.57 13.43C33.21 14.07 33.602 14.71 33.896 15.467C34.181 16.199 34.375 17.035 34.431 18.259C34.487 19.485 34.5 19.877 34.5 23C34.5 26.123 34.487 26.515 34.43 27.741C34.375 28.966 34.18 29.801 33.896 30.533C33.6074 31.3003 33.1549 31.9955 32.57 32.57C31.9955 33.1549 31.3003 33.6074 30.533 33.896C29.801 34.181 28.965 34.375 27.741 34.431C26.515 34.487 26.123 34.5 23 34.5C19.877 34.5 19.485 34.487 18.259 34.43C17.034 34.375 16.199 34.18 15.467 33.896C14.6997 33.6074 14.0045 33.1549 13.43 32.57C12.8451 31.9955 12.3926 31.3003 12.104 30.533C11.819 29.801 11.625 28.966 11.569 27.741C11.513 26.515 11.5 26.123 11.5 23C11.5 19.877 11.513 19.485 11.57 18.259C11.625 17.035 11.82 16.199 12.104 15.467C12.3926 14.6997 12.8451 14.0045 13.43 13.43C14.0045 12.8451 14.6997 12.3926 15.467 12.104C16.199 11.819 17.034 11.625 18.259 11.569C19.485 11.513 19.877 11.5 23 11.5ZM23.023 17.113C22.2469 17.113 21.4784 17.2659 20.7613 17.5629C20.0443 17.8599 19.3928 18.2952 18.844 18.844C18.2952 19.3928 17.8599 20.0443 17.5629 20.7613C17.2659 21.4784 17.113 22.2469 17.113 23.023C17.113 23.7991 17.2659 24.5676 17.5629 25.2847C17.8599 26.0017 18.2952 26.6532 18.844 27.202C19.3928 27.7508 20.0443 28.1861 20.7613 28.4831C21.4784 28.7801 22.2469 28.933 23.023 28.933C24.5904 28.933 26.0937 28.3103 27.202 27.202C28.3103 26.0937 28.933 24.5904 28.933 23.023C28.933 21.4556 28.3103 19.9523 27.202 18.844C26.0937 17.7357 24.5904 17.113 23.023 17.113ZM23.023 26.859C22.0056 26.859 21.0299 26.4549 20.3105 25.7355C19.5911 25.0161 19.187 24.0404 19.187 23.023C19.187 22.0056 19.5911 21.0299 20.3105 20.3105C21.0299 19.5911 22.0056 19.187 23.023 19.187C24.0404 19.187 25.0161 19.5911 25.7355 20.3105C26.4549 21.0299 26.859 22.0056 26.859 23.023C26.859 24.0404 26.4549 25.0161 25.7355 25.7355C25.0161 26.4549 24.0404 26.859 23.023 26.859ZM30.484 16.839C30.484 16.4759 30.3398 16.1277 30.083 15.871C29.8263 15.6142 29.4781 15.47 29.115 15.47C28.7519 15.47 28.4037 15.6142 28.147 15.871C27.8902 16.1277 27.746 16.4759 27.746 16.839C27.746 17.2021 27.8902 17.5503 28.147 17.807C28.4037 18.0638 28.7519 18.208 29.115 18.208C29.4781 18.208 29.8263 18.0638 30.083 17.807C30.3398 17.5503 30.484 17.2021 30.484 16.839Z" fill="black"/>
</svg>
