<svg width="23" height="23" viewBox="0 0 23 23" fill="none" xmlns="http://www.w3.org/2000/svg">
<path opacity="0.13" fill-rule="evenodd" clip-rule="evenodd" d="M11.5 2.072C14.57 2.072 14.934 2.084 16.147 2.139C17.268 2.19 17.877 2.378 18.282 2.535C18.819 2.744 19.202 2.993 19.605 3.395C20.007 3.798 20.256 4.181 20.465 4.718C20.622 5.123 20.81 5.732 20.861 6.853C20.916 8.066 20.928 8.429 20.928 11.5C20.928 14.57 20.916 14.934 20.861 16.147C20.81 17.268 20.622 17.877 20.465 18.282C20.256 18.819 20.007 19.202 19.605 19.605C19.2338 19.9869 18.7817 20.2808 18.282 20.465C17.877 20.622 17.268 20.81 16.147 20.861C14.934 20.916 14.571 20.928 11.5 20.928C8.43 20.928 8.065 20.916 6.853 20.861C5.732 20.81 5.123 20.622 4.718 20.465C4.21827 20.2808 3.76618 19.9869 3.395 19.605C3.01306 19.2338 2.71918 18.7817 2.535 18.282C2.378 17.877 2.19 17.268 2.139 16.147C2.084 14.934 2.072 14.571 2.072 11.5C2.072 8.43 2.084 8.066 2.139 6.853C2.19 5.732 2.378 5.123 2.535 4.718C2.744 4.181 2.993 3.798 3.395 3.395C3.76618 3.01306 4.21827 2.71918 4.718 2.535C5.123 2.378 5.732 2.19 6.853 2.139C8.066 2.084 8.429 2.072 11.5 2.072ZM11.5 0C14.623 0 15.015 0.0129997 16.241 0.0699997C17.465 0.125 18.301 0.32 19.033 0.604C19.8003 0.892614 20.4955 1.34513 21.07 1.93C21.71 2.57 22.102 3.21 22.396 3.967C22.681 4.699 22.875 5.535 22.931 6.759C22.987 7.985 23 8.377 23 11.5C23 14.623 22.987 15.015 22.93 16.241C22.875 17.466 22.68 18.301 22.396 19.033C22.1074 19.8003 21.6549 20.4955 21.07 21.07C20.4955 21.6549 19.8003 22.1074 19.033 22.396C18.301 22.681 17.465 22.875 16.241 22.931C15.015 22.987 14.623 23 11.5 23C8.377 23 7.985 22.987 6.759 22.93C5.534 22.875 4.699 22.68 3.967 22.396C3.19965 22.1074 2.5045 21.6549 1.93 21.07C1.34513 20.4955 0.892614 19.8003 0.604 19.033C0.319 18.301 0.125 17.466 0.0690002 16.241C0.0130002 15.015 0 14.623 0 11.5C0 8.377 0.0129997 7.985 0.0699997 6.759C0.125 5.535 0.32 4.699 0.604 3.967C0.892614 3.19965 1.34513 2.5045 1.93 1.93C2.5045 1.34513 3.19965 0.892614 3.967 0.604C4.699 0.319 5.534 0.125 6.759 0.0690002C7.985 0.0130002 8.377 0 11.5 0ZM11.523 5.613C10.7469 5.613 9.97838 5.76587 9.26134 6.06287C8.54431 6.35988 7.89279 6.7952 7.344 7.344C6.7952 7.89279 6.35988 8.54431 6.06287 9.26134C5.76587 9.97838 5.613 10.7469 5.613 11.523C5.613 12.2991 5.76587 13.0676 6.06287 13.7847C6.35988 14.5017 6.7952 15.1532 7.344 15.702C7.89279 16.2508 8.54431 16.6861 9.26134 16.9831C9.97838 17.2801 10.7469 17.433 11.523 17.433C13.0904 17.433 14.5937 16.8103 15.702 15.702C16.8103 14.5937 17.433 13.0904 17.433 11.523C17.433 9.95557 16.8103 8.45234 15.702 7.344C14.5937 6.23566 13.0904 5.613 11.523 5.613ZM11.523 15.359C10.5056 15.359 9.52993 14.9549 8.81054 14.2355C8.09115 13.5161 7.687 12.5404 7.687 11.523C7.687 10.5056 8.09115 9.52993 8.81054 8.81054C9.52993 8.09115 10.5056 7.687 11.523 7.687C12.5404 7.687 13.5161 8.09115 14.2355 8.81054C14.9549 9.52993 15.359 10.5056 15.359 11.523C15.359 12.5404 14.9549 13.5161 14.2355 14.2355C13.5161 14.9549 12.5404 15.359 11.523 15.359ZM18.984 5.339C18.984 4.97592 18.8398 4.62771 18.583 4.37097C18.3263 4.11423 17.9781 3.97 17.615 3.97C17.2519 3.97 16.9037 4.11423 16.647 4.37097C16.3902 4.62771 16.246 4.97592 16.246 5.339C16.246 5.70208 16.3902 6.05029 16.647 6.30703C16.9037 6.56377 17.2519 6.708 17.615 6.708C17.9781 6.708 18.3263 6.56377 18.583 6.30703C18.8398 6.05029 18.984 5.70208 18.984 5.339Z" fill="black"/>
</svg>
