<svg width="147" height="64" viewBox="0 0 147 64" fill="none" xmlns="http://www.w3.org/2000/svg">
<path d="M147 46.3457H0V47.2893H147V46.3457Z" fill="#C6007F"/>
<path d="M89.3191 57.2108C89.3191 56.9682 89.2653 56.7795 89.1846 56.6177C89.1039 56.4559 88.9963 56.3481 88.8617 56.2672C88.7272 56.1863 88.5927 56.1324 88.4582 56.1324C88.3237 56.1054 88.1892 56.1054 88.0278 56.1054H87.4359V58.451H88.0816C88.2968 58.451 88.4851 58.4241 88.6465 58.3702C88.8079 58.3162 88.9156 58.2353 89.0232 58.1275C89.1308 58.0197 89.1846 57.8849 89.2384 57.7501C89.2922 57.5613 89.3191 57.3996 89.3191 57.2108ZM90.7988 57.103C90.7988 57.4804 90.745 57.8309 90.6105 58.1275C90.5029 58.4241 90.3145 58.6667 90.0724 58.8824C89.8303 59.0981 89.5612 59.2329 89.2115 59.3407C88.8618 59.4486 88.4851 59.5025 88.0278 59.5025H87.4628V61.7133C87.4628 61.7403 87.4628 61.7942 87.4359 61.8211C87.409 61.8481 87.3821 61.8751 87.3283 61.902C87.2745 61.929 87.1937 61.929 87.113 61.956C87.0323 61.956 86.8978 61.9829 86.7633 61.9829C86.6288 61.9829 86.5212 61.9829 86.4136 61.956C86.3328 61.956 86.2521 61.929 86.1983 61.902C86.1445 61.8751 86.1176 61.8481 86.0907 61.8211C86.0638 61.7942 86.0638 61.7672 86.0638 61.7133V55.4853C86.0638 55.3236 86.1176 55.1888 86.1983 55.1079C86.279 55.027 86.4136 54.9731 86.5481 54.9731H88.1623C88.3237 54.9731 88.4851 54.9731 88.6196 55C88.7541 55 88.9425 55.027 89.1577 55.0809C89.3729 55.1348 89.5612 55.1888 89.7765 55.2966C89.9917 55.4045 90.18 55.5393 90.3145 55.728C90.476 55.8897 90.5836 56.1054 90.6643 56.3211C90.745 56.5638 90.7988 56.8334 90.7988 57.103ZM83.1044 58.451C83.1044 58.1005 83.0775 57.7501 83.0237 57.4535C82.9699 57.1569 82.8623 56.9143 82.7278 56.6986C82.5933 56.4829 82.405 56.3211 82.1897 56.2133C81.9745 56.1054 81.6786 56.0515 81.3288 56.0515C80.9791 56.0515 80.71 56.1054 80.4679 56.2402C80.2258 56.375 80.0375 56.5368 79.9029 56.7525C79.7684 56.9682 79.6608 57.2108 79.607 57.5074C79.5532 57.804 79.5263 58.1005 79.5263 58.4241C79.5263 58.8015 79.5532 59.152 79.607 59.4486C79.6608 59.7452 79.7684 60.0148 79.9029 60.2305C80.0375 60.4461 80.2258 60.6079 80.441 60.7158C80.6562 60.8236 80.9522 60.8775 81.3019 60.8775C81.6517 60.8775 81.9207 60.8236 82.1628 60.6888C82.4049 60.554 82.5933 60.3922 82.7278 60.1765C82.8623 59.9608 82.9699 59.6912 83.0237 59.3947C83.0775 59.0981 83.1044 58.7746 83.1044 58.451ZM84.5841 58.3702C84.5841 58.9363 84.5034 59.4486 84.3689 59.9069C84.2344 60.3653 84.0191 60.7427 83.7232 61.0662C83.4542 61.3898 83.1044 61.6324 82.674 61.7942C82.2704 61.956 81.7862 62.0368 81.2481 62.0368C80.71 62.0368 80.2527 61.956 79.8491 61.8211C79.4456 61.6863 79.1227 61.4707 78.8537 61.1741C78.5847 60.8775 78.3963 60.527 78.2618 60.0687C78.1273 59.6104 78.0735 59.0981 78.0735 58.478C78.0735 57.9118 78.1542 57.4265 78.2887 56.9682C78.4233 56.5099 78.6385 56.1324 78.9344 55.8358C79.2035 55.5123 79.5532 55.2696 79.9836 55.1079C80.3872 54.9461 80.8715 54.8652 81.4364 54.8652C81.9476 54.8652 82.4318 54.9461 82.8085 55.0809C83.212 55.2157 83.5349 55.4314 83.8039 55.728C84.073 56.0246 84.2882 56.375 84.4227 56.8064C84.5034 57.2648 84.5841 57.777 84.5841 58.3702ZM77.5085 55.5932C77.5085 55.701 77.5085 55.7819 77.5085 55.8628C77.5085 55.9437 77.4816 55.9976 77.4816 56.0246C77.4547 56.0785 77.4547 56.1054 77.4009 56.1324C77.374 56.1594 77.3471 56.1594 77.3202 56.1594H75.5984V61.7403C75.5984 61.7672 75.5984 61.8211 75.5715 61.8481C75.5446 61.8751 75.5177 61.902 75.4639 61.929C75.4101 61.956 75.3294 61.956 75.2487 61.9829C75.168 61.9829 75.0334 62.0099 74.8989 62.0099C74.7644 62.0099 74.6568 62.0099 74.5492 61.9829C74.4685 61.9829 74.3877 61.956 74.3339 61.929C74.2801 61.902 74.2532 61.8751 74.2263 61.8481C74.1994 61.8211 74.1994 61.7942 74.1994 61.7403V56.1594H72.4776C72.4507 56.1594 72.4238 56.1594 72.3969 56.1324C72.37 56.1054 72.3431 56.0785 72.3431 56.0246C72.3162 55.9706 72.3162 55.9167 72.3162 55.8628C72.3162 55.7819 72.3162 55.701 72.3162 55.5932C72.3162 55.4853 72.3162 55.4045 72.3162 55.3236C72.3162 55.2427 72.3431 55.1888 72.3431 55.1348C72.37 55.0809 72.37 55.054 72.3969 55.027C72.4238 55 72.4507 55 72.4776 55H77.3471C77.374 55 77.4009 55 77.4278 55.027C77.4547 55.054 77.4816 55.0809 77.5085 55.1348C77.5354 55.1888 77.5354 55.2427 77.5354 55.3236C77.5085 55.3775 77.5085 55.4853 77.5085 55.5932ZM71.6705 61.7403C71.6705 61.7672 71.6705 61.8211 71.6436 61.8481C71.6167 61.8751 71.5898 61.902 71.536 61.929C71.4822 61.956 71.4015 61.956 71.3208 61.956C71.2401 61.956 71.1055 61.956 70.971 61.956C70.8096 61.956 70.702 61.956 70.5944 61.956C70.4868 61.956 70.433 61.929 70.3792 61.902C70.3253 61.8751 70.2715 61.8481 70.2446 61.8211C70.2177 61.7942 70.1908 61.7403 70.1908 61.6863L69.6259 60.1496C69.5451 59.9339 69.4644 59.7452 69.3837 59.5834C69.303 59.4216 69.1954 59.3138 69.0878 59.2059C68.9802 59.1251 68.8726 59.0442 68.7381 59.0172C68.6035 58.9903 68.469 58.9633 68.2807 58.9633H67.9579V61.7403C67.9579 61.7672 67.9579 61.8211 67.9309 61.8481C67.904 61.8751 67.8771 61.902 67.8233 61.929C67.7695 61.956 67.6888 61.956 67.6081 61.9829C67.5274 61.9829 67.3929 61.9829 67.2584 61.9829C67.1238 61.9829 67.0162 61.9829 66.9086 61.9829C66.8279 61.9829 66.7472 61.956 66.6934 61.929C66.6396 61.902 66.6127 61.8751 66.5858 61.8481C66.5589 61.8211 66.5589 61.7942 66.5589 61.7403V55.1888C66.5589 55.1618 66.5589 55.1079 66.5858 55.0809C66.6127 55.054 66.6396 55.027 66.6934 55C66.7472 54.9731 66.8279 54.9731 66.9086 54.9731C66.9893 54.9731 67.1238 54.9731 67.2584 54.9731C67.3929 54.9731 67.5005 54.9731 67.6081 54.9731C67.6888 54.9731 67.7695 55 67.8233 55C67.8771 55.027 67.904 55.027 67.9309 55.0809C67.9579 55.1079 67.9579 55.1348 67.9579 55.1888V57.777H68.2807C68.4421 57.777 68.5766 57.7501 68.7111 57.7231C68.8457 57.6692 68.9533 57.6152 69.034 57.5074C69.1416 57.4265 69.2223 57.2917 69.303 57.1569C69.3837 57.0221 69.4644 56.8334 69.5452 56.6177L70.0025 55.2427C70.0294 55.1888 70.0294 55.1618 70.0563 55.1079C70.0832 55.0809 70.1101 55.054 70.1639 55.027C70.2177 55 70.2984 55 70.3792 54.9731C70.4599 54.9731 70.5944 54.9731 70.7558 54.9731C70.8903 54.9731 70.9979 54.9731 71.1055 54.9731C71.1862 54.9731 71.267 55 71.3208 55C71.3746 55.027 71.4015 55.027 71.4284 55.054C71.4553 55.0809 71.4553 55.1079 71.4553 55.1618C71.4553 55.2157 71.4553 55.2696 71.4284 55.3236C71.4015 55.4045 71.3746 55.4853 71.3477 55.5932L70.8903 56.8334C70.8096 57.0491 70.7289 57.2648 70.6213 57.4265C70.5406 57.5883 70.4599 57.7231 70.3522 57.8309C70.2715 57.9388 70.1639 58.0466 70.0563 58.1005C69.9487 58.1814 69.8411 58.2353 69.7066 58.2893C69.8411 58.3432 69.9756 58.4241 70.0832 58.505C70.1908 58.5858 70.2984 58.6667 70.4061 58.8015C70.5137 58.9094 70.5944 59.0711 70.702 59.2329C70.7827 59.3947 70.8903 59.6104 70.971 59.853L71.536 61.2819C71.5898 61.4167 71.6167 61.5246 71.6436 61.5785C71.6705 61.6594 71.6705 61.6863 71.6705 61.7403ZM63.5995 58.451C63.5995 58.1005 63.5726 57.7501 63.5188 57.4535C63.465 57.1569 63.3574 56.9143 63.2229 56.6986C63.0883 56.4829 62.9 56.3211 62.6848 56.2133C62.4696 56.1054 62.1736 56.0515 61.8239 56.0515C61.4741 56.0515 61.2051 56.1054 60.963 56.2402C60.7209 56.375 60.5325 56.5368 60.398 56.7525C60.2635 56.9682 60.1559 57.2108 60.1021 57.5074C60.0483 57.804 60.0214 58.1005 60.0214 58.4241C60.0214 58.8015 60.0483 59.152 60.1021 59.4486C60.1559 59.7452 60.2635 60.0148 60.398 60.2305C60.5325 60.4461 60.7209 60.6079 60.9361 60.7158C61.1513 60.8236 61.4472 60.8775 61.797 60.8775C62.1467 60.8775 62.4158 60.8236 62.6579 60.6888C62.9 60.554 63.0883 60.3922 63.2229 60.1765C63.3574 59.9608 63.465 59.6912 63.5188 59.3947C63.5726 59.0981 63.5995 58.7746 63.5995 58.451ZM65.0792 58.3702C65.0792 58.9363 64.9985 59.4486 64.864 59.9069C64.7295 60.3653 64.5142 60.7427 64.2183 61.0662C63.9493 61.3898 63.5995 61.6324 63.1691 61.7942C62.7655 61.956 62.2812 62.0368 61.7432 62.0368C61.2051 62.0368 60.7478 61.956 60.3442 61.8211C59.9407 61.6863 59.6178 61.4707 59.3488 61.1741C59.0798 60.8775 58.8914 60.527 58.7569 60.0687C58.6224 59.6104 58.5686 59.0981 58.5686 58.478C58.5686 57.9118 58.6493 57.4265 58.7838 56.9682C58.9183 56.5099 59.1336 56.1324 59.4295 55.8358C59.6985 55.5123 60.0483 55.2696 60.4787 55.1079C60.8823 54.9461 61.3665 54.8652 61.9315 54.8652C62.4427 54.8652 62.9269 54.9461 63.3036 55.0809C63.7071 55.2157 64.03 55.4314 64.299 55.728C64.568 56.0246 64.7833 56.375 64.9178 56.8064C64.9985 57.2648 65.0792 57.777 65.0792 58.3702ZM55.5823 56.1324H53.9681C53.9143 56.6716 53.8336 57.1569 53.7798 57.5613C53.726 57.9657 53.6453 58.3432 53.5915 58.6398C53.5377 58.9363 53.4569 59.2059 53.4031 59.4486C53.3493 59.6643 53.2686 59.853 53.2148 60.0417C53.161 60.2035 53.0803 60.3383 52.9996 60.4731C52.9189 60.5809 52.8651 60.6888 52.7844 60.7966H55.5823V56.1324ZM57.8153 63.5466C57.8153 63.5736 57.8153 63.6006 57.7884 63.6275C57.7615 63.6545 57.7346 63.6814 57.6808 63.6814C57.627 63.7084 57.5732 63.7084 57.4925 63.7084C57.4117 63.7084 57.3041 63.7084 57.1965 63.7084C57.0889 63.7084 56.9813 63.7084 56.9006 63.7084C56.8199 63.7084 56.7661 63.6814 56.7123 63.6814C56.6584 63.6545 56.6315 63.6545 56.6046 63.6275C56.5777 63.6006 56.5777 63.5736 56.5777 63.5466V61.929H51.9773V63.5466C51.9773 63.5736 51.9773 63.6006 51.9504 63.6275C51.9235 63.6545 51.8966 63.6814 51.8427 63.6814C51.7889 63.7084 51.7351 63.7084 51.6544 63.7084C51.5737 63.7084 51.4661 63.7084 51.3585 63.7084C51.224 63.7084 51.1433 63.7084 51.0626 63.7084C50.9818 63.7084 50.928 63.6814 50.8742 63.6814C50.8204 63.6545 50.7935 63.6545 50.7666 63.6275C50.7397 63.6006 50.7397 63.5736 50.7397 63.5466V61.0662C50.7397 60.9584 50.7397 60.8775 50.7935 60.8506C50.8473 60.7966 50.9011 60.7697 50.9818 60.7697H51.3047C51.3854 60.6618 51.4661 60.527 51.5468 60.3922C51.6275 60.2574 51.7082 60.1226 51.762 59.9339C51.8427 59.7452 51.8966 59.5564 51.9773 59.3138C52.058 59.0711 52.1118 58.7746 52.1925 58.4241C52.2732 58.0736 52.327 57.6422 52.4077 57.1839C52.4884 56.6986 52.5422 56.1324 52.6229 55.4853C52.6498 55.3236 52.6768 55.2157 52.7575 55.1348C52.8113 55.054 52.9189 55.027 53.0265 55.027H56.5508C56.6853 55.027 56.7661 55.054 56.8468 55.1348C56.9275 55.2157 56.9544 55.3236 56.9544 55.4584V60.7697H57.5463C57.6539 60.7697 57.7077 60.7966 57.7615 60.8506C57.7884 60.9045 57.8153 60.9854 57.8153 61.0662V63.5466ZM44.5519 56.3211L43.5834 59.2599H45.5205L44.5519 56.3211ZM47.7265 61.3898C47.7803 61.5246 47.8072 61.6324 47.8072 61.6863C47.8072 61.7672 47.8072 61.8211 47.7534 61.8481C47.7265 61.8751 47.6458 61.902 47.5382 61.929C47.4306 61.929 47.2961 61.929 47.1347 61.929C46.9463 61.929 46.8118 61.929 46.7042 61.929C46.5966 61.929 46.5159 61.902 46.4621 61.902C46.4083 61.8751 46.3814 61.8751 46.3545 61.8211C46.3276 61.7942 46.3276 61.7672 46.3007 61.7133L45.8433 60.3113H43.2337L42.8032 61.6594C42.7763 61.7133 42.7763 61.7403 42.7494 61.7942C42.7225 61.8211 42.6956 61.8481 42.6418 61.8751C42.588 61.902 42.5073 61.902 42.4266 61.902C42.319 61.902 42.2113 61.902 42.0499 61.902C41.8885 61.902 41.754 61.902 41.6733 61.8751C41.5926 61.8751 41.5119 61.8481 41.485 61.7942C41.4581 61.7403 41.4312 61.6863 41.4581 61.6324C41.4581 61.5515 41.485 61.4707 41.5388 61.3359L43.6641 55.1888C43.691 55.1348 43.7179 55.0809 43.7448 55.054C43.7717 55.027 43.8256 55 43.8794 54.9731C43.9332 54.9461 44.0408 54.9461 44.1484 54.9461C44.256 54.9461 44.3905 54.9461 44.5788 54.9461C44.7941 54.9461 44.9555 54.9461 45.09 54.9461C45.2245 54.9461 45.3052 54.9731 45.3859 54.9731C45.4667 55 45.4936 55.027 45.5474 55.054C45.5743 55.0809 45.6012 55.1348 45.6281 55.2157L47.7265 61.3898ZM40.7317 61.7403C40.7317 61.7672 40.7317 61.8211 40.7048 61.8481C40.6779 61.8751 40.651 61.902 40.5971 61.929C40.5433 61.956 40.4626 61.956 40.3819 61.956C40.3012 61.956 40.1667 61.956 40.0322 61.956C39.8708 61.956 39.7631 61.956 39.6555 61.956C39.5479 61.956 39.4941 61.929 39.4403 61.902C39.3865 61.8751 39.3327 61.8481 39.3058 61.8211C39.2789 61.7942 39.252 61.7403 39.252 61.6863L38.687 60.1496C38.6063 59.9339 38.5256 59.7452 38.4449 59.5834C38.3642 59.4216 38.2566 59.3138 38.1489 59.2059C38.0413 59.1251 37.9337 59.0442 37.7992 59.0172C37.6647 58.9903 37.5302 58.9633 37.3418 58.9633H37.019V61.7403C37.019 61.7672 37.019 61.8211 36.9921 61.8481C36.9652 61.8751 36.9383 61.902 36.8845 61.929C36.8307 61.956 36.75 61.956 36.6693 61.9829C36.5886 61.9829 36.454 61.9829 36.3195 61.9829C36.185 61.9829 36.0774 61.9829 35.9698 61.9829C35.8891 61.9829 35.8084 61.956 35.7545 61.929C35.7007 61.902 35.6738 61.8751 35.6469 61.8481C35.62 61.8211 35.62 61.7942 35.62 61.7403V55.1888C35.62 55.1618 35.62 55.1079 35.6469 55.0809C35.6738 55.054 35.7007 55.027 35.7545 55C35.8084 54.9731 35.8891 54.9731 35.9698 54.9731C36.0505 54.9731 36.185 54.9731 36.3195 54.9731C36.454 54.9731 36.5616 54.9731 36.6693 54.9731C36.75 54.9731 36.8307 55 36.8845 55C36.9383 55.027 36.9652 55.027 36.9921 55.0809C37.019 55.1079 37.019 55.1348 37.019 55.1888V57.777H37.3418C37.5033 57.777 37.6378 57.7501 37.7723 57.7231C37.9068 57.6692 38.0144 57.6152 38.0951 57.5074C38.2028 57.4265 38.2835 57.2917 38.3642 57.1569C38.4449 57.0221 38.5256 56.8334 38.6063 56.6177L39.0637 55.2427C39.0906 55.1888 39.0906 55.1618 39.1175 55.1079C39.1444 55.0809 39.1713 55.054 39.2251 55.027C39.2789 55 39.3596 55 39.4403 54.9731C39.521 54.9731 39.6555 54.9731 39.817 54.9731C39.9515 54.9731 40.0591 54.9731 40.1667 54.9731C40.2474 54.9731 40.3281 55 40.3819 55C40.4357 55.027 40.4626 55.027 40.4895 55.054C40.5164 55.0809 40.5164 55.1079 40.5164 55.1618C40.5164 55.2157 40.5164 55.2696 40.4895 55.3236C40.4626 55.4045 40.4357 55.4853 40.4088 55.5932L39.9515 56.8334C39.8708 57.0491 39.7901 57.2648 39.6824 57.4265C39.6017 57.5883 39.521 57.7231 39.4134 57.8309C39.3327 57.9388 39.2251 58.0466 39.1175 58.1005C39.0098 58.1814 38.9022 58.2353 38.7677 58.2893C38.9022 58.3432 39.0368 58.4241 39.1444 58.505C39.252 58.5858 39.3596 58.6667 39.4672 58.8015C39.5748 58.9094 39.6555 59.0711 39.7631 59.2329C39.8439 59.3947 39.9515 59.6104 40.0322 59.853L40.5971 61.2819C40.651 61.4167 40.6779 61.5246 40.7048 61.5785C40.7317 61.6594 40.7317 61.6863 40.7317 61.7403ZM33.8175 61.7403C33.8175 61.7672 33.8175 61.7942 33.7906 61.8211C33.7637 61.8481 33.7368 61.8751 33.683 61.902C33.6292 61.929 33.5485 61.929 33.4678 61.929C33.3871 61.929 33.2525 61.929 33.118 61.929C32.9835 61.929 32.8759 61.929 32.7683 61.929C32.6876 61.929 32.6069 61.902 32.553 61.902C32.4992 61.8751 32.4723 61.8751 32.4454 61.8211C32.4185 61.7942 32.4185 61.7672 32.4185 61.7403V58.1005C32.4185 57.9657 32.4185 57.8309 32.4185 57.6961C32.4185 57.5613 32.4185 57.4535 32.4454 57.3456C32.4185 57.3996 32.3916 57.4535 32.3378 57.5074C32.3109 57.5613 32.2571 57.6422 32.2033 57.7231C32.1495 57.804 32.1226 57.8579 32.0688 57.9388C32.015 58.0197 31.9612 58.1005 31.9074 58.1545L29.513 61.7403C29.4861 61.7672 29.4592 61.8211 29.4323 61.8481C29.4054 61.8751 29.3516 61.902 29.3246 61.929C29.2708 61.956 29.217 61.956 29.1632 61.956C29.0825 61.956 29.0018 61.956 28.8942 61.956C28.7597 61.956 28.6521 61.956 28.5714 61.956C28.4906 61.956 28.4099 61.929 28.383 61.929C28.3292 61.902 28.3023 61.8751 28.2754 61.8481C28.2485 61.8211 28.2485 61.7942 28.2485 61.7403V55.1888C28.2485 55.1618 28.2485 55.1348 28.2754 55.1079C28.3023 55.0809 28.3292 55.054 28.383 55.027C28.4368 55 28.5175 55 28.5983 55C28.679 55 28.7866 55 28.9211 55C29.0556 55 29.1632 55 29.2708 55C29.3516 55 29.4323 55.027 29.4861 55.027C29.5399 55.054 29.5668 55.054 29.5937 55.1079C29.6206 55.1348 29.6206 55.1618 29.6206 55.1888V58.8554C29.6206 58.9633 29.6206 59.0981 29.6206 59.2059C29.6206 59.3407 29.6206 59.4486 29.5937 59.5834C29.6475 59.4755 29.7282 59.3407 29.8358 59.2059C29.9165 59.0442 30.0241 58.9094 30.1317 58.7746L32.5261 55.1888C32.5531 55.1618 32.58 55.1348 32.6069 55.1079C32.6338 55.0809 32.6876 55.054 32.7145 55.027C32.7683 55 32.8221 55 32.9028 55C32.9835 55 33.0642 55 33.1718 55C33.3063 55 33.414 55 33.4947 55C33.5754 55 33.6561 55.027 33.683 55.027C33.7368 55.054 33.7637 55.054 33.7906 55.1079C33.8175 55.1348 33.8175 55.1618 33.8175 55.2157V61.7403ZM26.4191 61.7403C26.4191 61.7672 26.4191 61.8211 26.3922 61.8481C26.3653 61.8751 26.3384 61.902 26.2846 61.929C26.2308 61.956 26.1501 61.956 26.0693 61.9829C25.9886 61.9829 25.881 62.0099 25.7465 62.0099C25.612 62.0099 25.5044 62.0099 25.3968 61.9829C25.316 61.9829 25.2353 61.956 25.1815 61.929C25.1277 61.902 25.1008 61.8751 25.0739 61.8481C25.047 61.8211 25.047 61.7942 25.047 61.7403V58.9363H22.4643V61.7403C22.4643 61.7672 22.4643 61.8211 22.4374 61.8481C22.4105 61.8751 22.3836 61.902 22.3298 61.929C22.276 61.956 22.1953 61.956 22.1145 61.9829C22.0338 61.9829 21.8993 62.0099 21.7648 62.0099C21.6303 62.0099 21.5227 62.0099 21.4151 61.9829C21.3344 61.9829 21.2536 61.956 21.1998 61.929C21.146 61.902 21.1191 61.8751 21.0922 61.8481C21.0653 61.8211 21.0653 61.7942 21.0653 61.7403V55.2157C21.0653 55.1888 21.0653 55.1348 21.0922 55.1079C21.1191 55.0809 21.146 55.054 21.1998 55.027C21.2536 55 21.3344 55 21.4151 54.9731C21.4958 54.9731 21.6303 54.9461 21.7648 54.9461C21.8993 54.9461 22.0069 54.9461 22.1145 54.9731C22.1953 54.9731 22.276 55 22.3298 55.027C22.3836 55.054 22.4105 55.0809 22.4374 55.1079C22.4643 55.1348 22.4643 55.1618 22.4643 55.2157V57.7501H25.0201V55.2157C25.0201 55.1888 25.0201 55.1348 25.047 55.1079C25.0739 55.0809 25.1008 55.054 25.1546 55.027C25.2084 55 25.2891 55 25.3699 54.9731C25.4506 54.9731 25.5851 54.9461 25.7196 54.9461C25.8541 54.9461 25.9617 54.9461 26.0424 54.9731C26.1231 54.9731 26.2039 55 26.2577 55.027C26.3115 55.054 26.3384 55.0809 26.3653 55.1079C26.3922 55.1348 26.3922 55.1618 26.3922 55.2157V61.7403H26.4191ZM19.2359 61.7403C19.2359 61.7672 19.2359 61.7942 19.209 61.8211C19.1821 61.8481 19.1552 61.8751 19.1014 61.902C19.0476 61.929 18.9669 61.929 18.8861 61.929C18.8054 61.929 18.6709 61.929 18.5364 61.929C18.4019 61.929 18.2943 61.929 18.1867 61.929C18.106 61.929 18.0252 61.902 17.9714 61.902C17.9176 61.8751 17.8907 61.8751 17.8638 61.8211C17.8369 61.7942 17.8369 61.7672 17.8369 61.7403V58.1005C17.8369 57.9657 17.8369 57.8309 17.8369 57.6961C17.8369 57.5613 17.8369 57.4535 17.8638 57.3456C17.8369 57.3996 17.81 57.4535 17.7562 57.5074C17.7024 57.5613 17.6755 57.6422 17.6217 57.7231C17.5679 57.804 17.541 57.8579 17.4872 57.9388C17.4334 58.0197 17.3796 58.1005 17.3258 58.1545L14.9314 61.7403C14.9045 61.7672 14.8776 61.8211 14.8506 61.8481C14.8237 61.8751 14.7699 61.902 14.743 61.929C14.6892 61.956 14.6354 61.956 14.5816 61.956C14.5009 61.956 14.4202 61.956 14.3126 61.956C14.1781 61.956 14.0704 61.956 13.9897 61.956C13.909 61.956 13.8283 61.929 13.8014 61.929C13.7476 61.902 13.7207 61.8751 13.6938 61.8481C13.6669 61.8211 13.6669 61.7942 13.6669 61.7403V55.1888C13.6669 55.1618 13.6669 55.1348 13.6938 55.1079C13.7207 55.0809 13.7476 55.054 13.8014 55.027C13.8552 55 13.9359 55 14.0166 55C14.0974 55 14.205 55 14.3395 55C14.474 55 14.5816 55 14.6892 55C14.7699 55 14.8506 55.027 14.9045 55.027C14.9583 55.054 14.9852 55.054 15.0121 55.1079C15.039 55.1348 15.039 55.1618 15.039 55.1888V58.8554C15.039 58.9633 15.039 59.0981 15.039 59.2059C15.039 59.3407 15.039 59.4486 15.0121 59.5834C15.0659 59.4755 15.1466 59.3407 15.2542 59.2059C15.3349 59.0442 15.4425 58.9094 15.5501 58.7746L17.9445 55.1888C17.9714 55.1618 17.9983 55.1348 18.0252 55.1079C18.0521 55.0809 18.106 55.054 18.1329 55.027C18.1867 55 18.2405 55 18.3212 55C18.4019 55 18.4826 55 18.5902 55C18.7247 55 18.8323 55 18.9131 55C18.9938 55 19.0745 55.027 19.1014 55.027C19.1552 55.054 19.1821 55.054 19.209 55.1079C19.2359 55.1348 19.2359 55.1618 19.2359 55.2157V61.7403ZM11.8106 61.7403C11.8106 61.7672 11.8106 61.7942 11.7837 61.8211C11.7568 61.8481 11.7299 61.8751 11.6761 61.902C11.6222 61.929 11.5415 61.929 11.4608 61.929C11.3801 61.929 11.2456 61.929 11.1111 61.929C10.9766 61.929 10.869 61.929 10.7613 61.929C10.6806 61.929 10.5999 61.902 10.5461 61.902C10.4923 61.8751 10.4654 61.8751 10.4385 61.8211C10.4116 61.7942 10.4116 61.7672 10.4116 61.7403V56.1594H8.93191C8.8243 56.9682 8.71668 57.6961 8.63597 58.2893C8.52836 58.9094 8.42075 59.4216 8.31313 59.853C8.20552 60.2844 8.071 60.6349 7.93649 60.9314C7.80197 61.201 7.64055 61.4437 7.45223 61.6055C7.2639 61.7672 7.07558 61.8751 6.83345 61.929C6.61822 61.9829 6.34919 62.0099 6.05325 62.0099C5.99945 62.0099 5.94564 62.0099 5.91874 61.9829C5.89183 61.9829 5.83803 61.956 5.83803 61.902C5.81112 61.8751 5.81112 61.8211 5.78422 61.7403C5.78422 61.6594 5.75732 61.5785 5.75732 61.4707C5.75732 61.3089 5.75732 61.201 5.75732 61.0932C5.75732 61.0123 5.78422 60.9314 5.78422 60.8775C5.81112 60.8236 5.83803 60.7966 5.86493 60.7697C5.89183 60.7427 5.91874 60.7427 5.97254 60.7427C6.08016 60.7427 6.18777 60.7158 6.29538 60.6618C6.403 60.6079 6.48371 60.527 6.59132 60.3922C6.69893 60.2574 6.77964 60.0687 6.86035 59.826C6.94106 59.5834 7.02177 59.2868 7.12939 58.8824C7.2101 58.505 7.29081 58.0197 7.37152 57.4535C7.45223 56.8873 7.53294 56.2133 7.61365 55.4584C7.64055 55.2696 7.66745 55.1348 7.74816 55.0809C7.80197 55 7.90958 54.9731 8.0172 54.9731H11.407C11.5415 54.9731 11.6222 55 11.703 55.0809C11.7837 55.1618 11.8106 55.2696 11.8106 55.4045V61.7403ZM5.11164 61.7403C5.11164 61.7672 5.11164 61.8211 5.08473 61.8481C5.05783 61.8751 5.03093 61.902 4.97712 61.929C4.92331 61.956 4.8426 61.956 4.76189 61.956C4.68118 61.956 4.54667 61.956 4.41215 61.956C4.25073 61.956 4.14312 61.956 4.0355 61.956C3.92789 61.956 3.87408 61.929 3.82028 61.902C3.76647 61.8751 3.71266 61.8481 3.68576 61.8211C3.65885 61.7942 3.63195 61.7403 3.63195 61.6863L3.06698 60.1496C2.98627 59.9339 2.90556 59.7452 2.82485 59.5834C2.74414 59.4216 2.63653 59.3138 2.52891 59.2059C2.4213 59.1251 2.28678 59.0442 2.15227 59.0172C2.01775 58.9903 1.88323 58.9633 1.69491 58.9633H1.39897V61.7403C1.39897 61.7672 1.39897 61.8211 1.37207 61.8481C1.34517 61.8751 1.31826 61.902 1.26446 61.929C1.21065 61.956 1.12994 61.956 1.04923 61.9829C0.96852 61.9829 0.834004 61.9829 0.699487 61.9829C0.56497 61.9829 0.457357 61.9829 0.349743 61.9829C0.269033 61.9829 0.188323 61.956 0.134517 61.929C0.08071 61.902 0.0538067 61.8751 0.0269033 61.8481C0.0269033 61.7942 0 61.7672 0 61.7403V55.1888C0 55.1618 0 55.1079 0.0269033 55.0809C0.0538067 55.054 0.08071 55.027 0.134517 55C0.188323 54.9731 0.269033 54.9731 0.349743 54.9731C0.430454 54.9731 0.56497 54.9731 0.699487 54.9731C0.834004 54.9731 0.941617 54.9731 1.04923 54.9731C1.12994 54.9731 1.21065 55 1.26446 55C1.31826 55.027 1.34517 55.027 1.37207 55.0809C1.39897 55.1079 1.39897 55.1348 1.39897 55.1888V57.777H1.72181C1.88323 57.777 2.01775 57.7501 2.15227 57.7231C2.28678 57.6692 2.3944 57.6152 2.47511 57.5074C2.58272 57.4265 2.66343 57.2917 2.74414 57.1569C2.82485 57.0221 2.90556 56.8334 2.98627 56.6177L3.44363 55.2427C3.47053 55.1888 3.47053 55.1618 3.49744 55.1079C3.52434 55.0809 3.55124 55.054 3.60505 55.027C3.65885 55 3.73957 55 3.82028 54.9731C3.90099 54.9731 4.0355 54.9731 4.19692 54.9731C4.33144 54.9731 4.43905 54.9731 4.54667 54.9731C4.62738 54.9731 4.70809 55 4.76189 55C4.8157 55.027 4.8426 55.027 4.86951 55.054C4.89641 55.0809 4.89641 55.1079 4.89641 55.1618C4.89641 55.2157 4.89641 55.2696 4.86951 55.3236C4.8426 55.4045 4.8157 55.4853 4.7888 55.5932L4.33144 56.8334C4.25073 57.0491 4.17002 57.2648 4.06241 57.4265C3.9817 57.5883 3.90099 57.7231 3.79337 57.8309C3.71266 57.9388 3.60505 58.0466 3.49744 58.1005C3.38982 58.1814 3.28221 58.2353 3.14769 58.2893C3.28221 58.3432 3.41673 58.4241 3.52434 58.505C3.63195 58.5858 3.73957 58.6667 3.84718 58.8015C3.95479 58.9094 4.0355 59.0711 4.14312 59.2329C4.22383 59.3947 4.33144 59.6104 4.41215 59.853L4.97712 61.2819C5.03093 61.4167 5.05783 61.5246 5.08473 61.5785C5.11164 61.6594 5.11164 61.6863 5.11164 61.7403Z" fill="#C6007F"/>
<path d="M143.745 56.3208L142.776 59.2595H144.713L143.745 56.3208ZM146.919 61.3894C146.973 61.5242 147 61.6321 147 61.686C147 61.7669 147 61.8208 146.946 61.8478C146.919 61.8747 146.839 61.9017 146.731 61.9287C146.623 61.9287 146.489 61.9287 146.327 61.9287C146.139 61.9287 146.005 61.9287 145.897 61.9287C145.789 61.9287 145.709 61.9017 145.655 61.9017C145.601 61.8747 145.574 61.8747 145.547 61.8208C145.52 61.7938 145.52 61.7669 145.493 61.713L145.036 60.311H142.427L141.996 61.659C141.969 61.713 141.969 61.7399 141.942 61.7938C141.915 61.8208 141.888 61.8478 141.835 61.8747C141.781 61.9017 141.7 61.9017 141.619 61.9017C141.512 61.9017 141.404 61.9017 141.243 61.9017C141.081 61.9017 140.947 61.9017 140.866 61.8747C140.785 61.8747 140.705 61.8478 140.678 61.7938C140.651 61.7399 140.624 61.686 140.651 61.6321C140.651 61.5512 140.678 61.4703 140.732 61.3355L142.857 55.1884C142.884 55.1345 142.911 55.0806 142.938 55.0536C142.965 55.0267 143.018 54.9997 143.072 54.9727C143.126 54.9458 143.234 54.9458 143.341 54.9458C143.449 54.9458 143.583 54.9458 143.772 54.9458C143.987 54.9458 144.148 54.9458 144.283 54.9458C144.417 54.9458 144.498 54.9727 144.579 54.9727C144.659 54.9997 144.686 55.0267 144.74 55.0536C144.767 55.0806 144.794 55.1345 144.821 55.2154L146.919 61.3894ZM139.467 61.7399C139.467 61.7669 139.467 61.8208 139.44 61.8478C139.413 61.8747 139.386 61.9017 139.333 61.9287C139.279 61.9556 139.198 61.9556 139.117 61.9826C139.037 61.9826 138.929 62.0095 138.795 62.0095C138.66 62.0095 138.552 62.0095 138.445 61.9826C138.364 61.9826 138.283 61.9556 138.23 61.9287C138.176 61.9017 138.149 61.8747 138.122 61.8478C138.095 61.8208 138.095 61.7938 138.095 61.7399V58.936H135.512V61.7399C135.512 61.7669 135.512 61.8208 135.485 61.8478C135.459 61.8747 135.432 61.9017 135.378 61.9287C135.324 61.9556 135.243 61.9556 135.163 61.9826C135.082 61.9826 134.947 62.0095 134.813 62.0095C134.678 62.0095 134.571 62.0095 134.463 61.9826C134.382 61.9826 134.302 61.9556 134.248 61.9287C134.194 61.9017 134.167 61.8747 134.14 61.8478C134.113 61.8208 134.113 61.7938 134.113 61.7399V55.2154C134.113 55.1884 134.113 55.1345 134.14 55.1075C134.167 55.0806 134.194 55.0536 134.248 55.0267C134.302 54.9997 134.382 54.9997 134.463 54.9727C134.544 54.9727 134.678 54.9458 134.813 54.9458C134.947 54.9458 135.055 54.9458 135.163 54.9727C135.243 54.9727 135.324 54.9997 135.378 55.0267C135.432 55.0536 135.459 55.0806 135.485 55.1075C135.512 55.1345 135.512 55.1615 135.512 55.2154V57.7497H138.095V55.2154C138.095 55.1884 138.095 55.1345 138.122 55.1075C138.149 55.0806 138.176 55.0536 138.23 55.0267C138.283 54.9997 138.364 54.9997 138.445 54.9727C138.526 54.9727 138.66 54.9458 138.795 54.9458C138.929 54.9458 139.037 54.9458 139.117 54.9727C139.198 54.9727 139.279 54.9997 139.333 55.0267C139.386 55.0536 139.413 55.0806 139.44 55.1075C139.467 55.1345 139.467 55.1615 139.467 55.2154V61.7399ZM132.284 61.7399C132.284 61.7669 132.284 61.7938 132.257 61.8208C132.23 61.8478 132.203 61.8747 132.149 61.9017C132.096 61.9287 132.015 61.9287 131.934 61.9287C131.853 61.9287 131.719 61.9287 131.584 61.9287C131.45 61.9287 131.342 61.9287 131.235 61.9287C131.154 61.9287 131.073 61.9017 131.019 61.9017C130.966 61.8747 130.939 61.8747 130.912 61.8208C130.885 61.7938 130.885 61.7669 130.885 61.7399V58.1002C130.885 57.9654 130.885 57.8306 130.885 57.6958C130.885 57.561 130.885 57.4531 130.912 57.3453C130.885 57.3992 130.858 57.4531 130.804 57.5071C130.75 57.561 130.724 57.6419 130.67 57.7228C130.616 57.8036 130.589 57.8576 130.535 57.9384C130.481 58.0193 130.428 58.1002 130.374 58.1541L127.979 61.7399C127.953 61.7669 127.926 61.8208 127.899 61.8478C127.872 61.8747 127.818 61.9017 127.791 61.9287C127.737 61.9556 127.683 61.9556 127.63 61.9556C127.549 61.9556 127.468 61.9556 127.361 61.9556C127.226 61.9556 127.119 61.9556 127.038 61.9556C126.957 61.9556 126.876 61.9287 126.849 61.9287C126.796 61.9017 126.769 61.8747 126.742 61.8478C126.715 61.8208 126.715 61.7938 126.715 61.7399V55.1884C126.715 55.1615 126.715 55.1345 126.742 55.1075C126.769 55.0806 126.796 55.0536 126.849 55.0267C126.903 54.9997 126.984 54.9997 127.065 54.9997C127.145 54.9997 127.253 54.9997 127.388 54.9997C127.522 54.9997 127.63 54.9997 127.737 54.9997C127.818 54.9997 127.899 55.0267 127.953 55.0267C128.006 55.0536 128.033 55.0536 128.06 55.1075C128.087 55.1345 128.087 55.1615 128.087 55.1884V58.8551C128.087 58.963 128.087 59.0978 128.087 59.2056C128.087 59.3404 128.087 59.4482 128.06 59.5831C128.114 59.4752 128.195 59.3404 128.302 59.2056C128.383 59.0438 128.491 58.909 128.598 58.7742L130.993 55.1884C131.019 55.1615 131.046 55.1345 131.073 55.1075C131.1 55.0806 131.154 55.0536 131.181 55.0267C131.235 54.9997 131.289 54.9997 131.369 54.9997C131.45 54.9997 131.531 54.9997 131.638 54.9997C131.773 54.9997 131.88 54.9997 131.961 54.9997C132.042 54.9997 132.123 55.0267 132.149 55.0267C132.203 55.0536 132.23 55.0536 132.257 55.1075C132.284 55.1345 132.284 55.1615 132.284 55.2154V61.7399ZM124.859 61.7399C124.859 61.7669 124.859 61.8208 124.832 61.8478C124.805 61.8747 124.778 61.9017 124.724 61.9287C124.67 61.9556 124.616 61.9556 124.509 61.9826C124.428 61.9826 124.321 62.0095 124.186 62.0095C124.052 62.0095 123.944 62.0095 123.863 61.9826C123.782 61.9826 123.702 61.9556 123.648 61.9287C123.594 61.9017 123.567 61.8747 123.54 61.8478C123.513 61.8208 123.513 61.7938 123.513 61.7399V56.1051L121.523 61.7399C121.496 61.7938 121.496 61.8208 121.442 61.8478C121.415 61.8747 121.361 61.9017 121.307 61.9287C121.254 61.9556 121.173 61.9556 121.092 61.9556C121.011 61.9556 120.904 61.9556 120.796 61.9556C120.662 61.9556 120.581 61.9556 120.473 61.9556C120.393 61.9556 120.312 61.9287 120.258 61.9017C120.204 61.8747 120.151 61.8478 120.124 61.8208C120.097 61.7938 120.07 61.7669 120.07 61.713L118.133 56.0781V61.7399C118.133 61.7669 118.133 61.8208 118.106 61.8478C118.079 61.8747 118.052 61.9017 117.998 61.9287C117.944 61.9556 117.864 61.9556 117.783 61.9826C117.702 61.9826 117.595 62.0095 117.46 62.0095C117.326 62.0095 117.218 62.0095 117.137 61.9826C117.057 61.9826 116.976 61.9556 116.922 61.9287C116.868 61.9017 116.841 61.8747 116.815 61.8478C116.788 61.8208 116.788 61.7938 116.788 61.7399V55.5659C116.788 55.3772 116.841 55.2423 116.922 55.1615C117.03 55.0536 117.137 55.0267 117.299 55.0267H118.213C118.375 55.0267 118.509 55.0267 118.644 55.0536C118.752 55.0806 118.859 55.1345 118.94 55.1884C119.021 55.2423 119.101 55.3232 119.155 55.4311C119.209 55.5389 119.263 55.6468 119.317 55.8085L120.796 59.9335H120.823L122.41 55.8085C122.464 55.6468 122.518 55.5389 122.572 55.4311C122.626 55.3232 122.679 55.2423 122.76 55.1884C122.841 55.1345 122.922 55.0806 123.029 55.0536C123.137 55.0267 123.244 55.0267 123.379 55.0267H124.321C124.428 55.0267 124.509 55.0267 124.563 55.0536C124.643 55.0806 124.697 55.1075 124.724 55.1615C124.778 55.2154 124.805 55.2693 124.832 55.3232C124.859 55.4041 124.859 55.485 124.859 55.5659V61.7399ZM113.882 58.4507C113.882 58.1002 113.855 57.7497 113.801 57.4531C113.748 57.1566 113.64 56.9139 113.505 56.6982C113.371 56.4825 113.183 56.3208 112.967 56.2129C112.752 56.1051 112.456 56.0512 112.106 56.0512C111.757 56.0512 111.488 56.1051 111.246 56.2399C111.003 56.3747 110.815 56.5365 110.681 56.7522C110.546 56.9678 110.438 57.2105 110.385 57.5071C110.331 57.8036 110.304 58.1002 110.304 58.4237C110.304 58.8012 110.331 59.1517 110.385 59.4482C110.438 59.7448 110.546 60.0144 110.681 60.2301C110.815 60.4458 111.003 60.6076 111.219 60.7154C111.434 60.8233 111.73 60.8772 112.08 60.8772C112.429 60.8772 112.698 60.8233 112.94 60.6885C113.183 60.5536 113.371 60.3919 113.505 60.1762C113.64 59.9605 113.748 59.6909 113.801 59.3943C113.828 59.0978 113.882 58.7742 113.882 58.4507ZM115.335 58.3698C115.335 58.936 115.254 59.4482 115.12 59.9066C114.985 60.3649 114.77 60.7424 114.474 61.0659C114.205 61.3894 113.855 61.6321 113.425 61.7938C113.021 61.9556 112.537 62.0365 111.999 62.0365C111.461 62.0365 111.003 61.9556 110.6 61.8208C110.196 61.686 109.873 61.4703 109.604 61.1737C109.335 60.8772 109.147 60.5267 109.013 60.0684C108.878 59.61 108.824 59.0978 108.824 58.4777C108.824 57.9115 108.905 57.4262 109.039 56.9678C109.174 56.5095 109.389 56.1321 109.685 55.8355C109.954 55.512 110.304 55.2693 110.734 55.1075C111.138 54.9458 111.622 54.8649 112.187 54.8649C112.698 54.8649 113.183 54.9458 113.559 55.0806C113.963 55.2154 114.286 55.4311 114.555 55.7276C114.824 56.0242 115.039 56.3747 115.173 56.8061C115.281 57.2644 115.335 57.7767 115.335 58.3698ZM103.47 56.7252C103.201 56.7522 102.959 56.8061 102.771 56.9139C102.583 56.9948 102.421 57.1296 102.314 57.2644C102.206 57.3992 102.125 57.561 102.071 57.7228C102.018 57.8845 101.991 58.0732 101.991 58.262C101.991 58.5046 102.018 58.7203 102.071 58.909C102.125 59.0978 102.206 59.2595 102.314 59.3943C102.421 59.5291 102.583 59.637 102.771 59.7448C102.959 59.8257 103.201 59.8796 103.47 59.9335V56.7252ZM106.295 58.3159C106.295 58.1002 106.268 57.8845 106.215 57.6958C106.161 57.5071 106.08 57.3453 105.972 57.2105C105.865 57.0757 105.703 56.9678 105.515 56.887C105.327 56.8061 105.085 56.7522 104.816 56.6982V59.8796C105.085 59.8527 105.327 59.7987 105.515 59.6909C105.703 59.61 105.865 59.4752 105.972 59.3404C106.08 59.2056 106.161 59.0438 106.215 58.8551C106.268 58.6933 106.295 58.5046 106.295 58.3159ZM107.694 58.262C107.694 58.6394 107.64 58.9899 107.506 59.3134C107.371 59.637 107.21 59.9066 106.968 60.1223C106.726 60.3649 106.43 60.5267 106.08 60.6885C105.73 60.8233 105.3 60.9041 104.843 60.9581V61.7669C104.843 61.7939 104.843 61.8478 104.816 61.8747C104.789 61.9017 104.762 61.9287 104.708 61.9287C104.654 61.9556 104.573 61.9556 104.493 61.9556C104.412 61.9556 104.278 61.9556 104.17 61.9556C104.035 61.9556 103.928 61.9556 103.847 61.9556C103.766 61.9556 103.686 61.9287 103.632 61.9287C103.578 61.9017 103.551 61.9017 103.524 61.8747C103.497 61.8478 103.497 61.8208 103.497 61.7669V60.9581C103.04 60.9311 102.61 60.8772 102.26 60.7424C101.91 60.6345 101.614 60.4728 101.372 60.2301C101.13 60.0144 100.942 59.7448 100.834 59.4213C100.699 59.0978 100.646 58.7203 100.646 58.2889C100.646 57.9115 100.699 57.5879 100.834 57.2644C100.968 56.9678 101.13 56.6982 101.372 56.4556C101.614 56.2129 101.91 56.0512 102.26 55.8894C102.61 55.7546 103.04 55.6468 103.497 55.6198V54.8649C103.497 54.8379 103.497 54.811 103.524 54.784C103.551 54.757 103.578 54.7301 103.632 54.7301C103.686 54.7031 103.766 54.7031 103.847 54.7031C103.928 54.7031 104.035 54.7031 104.17 54.7031C104.304 54.7031 104.412 54.7031 104.493 54.7031C104.573 54.7031 104.654 54.7301 104.708 54.7301C104.762 54.757 104.789 54.757 104.816 54.784C104.843 54.811 104.843 54.8379 104.843 54.8649V55.6198C105.3 55.6468 105.73 55.7276 106.08 55.8355C106.43 55.9433 106.726 56.1321 106.968 56.3477C107.21 56.5634 107.398 56.833 107.506 57.1296C107.64 57.4801 107.694 57.8306 107.694 58.262ZM94.0543 56.3208L93.0858 59.2595H95.0228L94.0543 56.3208ZM97.202 61.3894C97.2558 61.5242 97.2827 61.6321 97.2827 61.686C97.2827 61.7669 97.2827 61.8208 97.2289 61.8478C97.202 61.8747 97.1213 61.9017 97.0137 61.9287C96.906 61.9287 96.7715 61.9287 96.6101 61.9287C96.4218 61.9287 96.2873 61.9287 96.1797 61.9287C96.072 61.9287 95.9913 61.9017 95.9375 61.9017C95.8837 61.8747 95.8568 61.8747 95.8299 61.8208C95.803 61.7938 95.803 61.7669 95.7761 61.713L95.3187 60.311H92.7091L92.2787 61.659C92.2518 61.713 92.2518 61.7399 92.2249 61.7938C92.198 61.8208 92.1711 61.8478 92.1173 61.8747C92.0634 61.9017 91.9827 61.9017 91.902 61.9017C91.7944 61.9017 91.6868 61.9017 91.5254 61.9017C91.364 61.9017 91.2294 61.9017 91.1487 61.8747C91.068 61.8747 90.9873 61.8478 90.9604 61.7938C90.9335 61.7399 90.9066 61.686 90.9335 61.6321C90.9335 61.5512 90.9604 61.4703 91.0142 61.3355L93.1396 55.1884C93.1665 55.1345 93.1934 55.0806 93.2203 55.0536C93.2472 55.0267 93.301 54.9997 93.3548 54.9727C93.4086 54.9458 93.5162 54.9458 93.6238 54.9458C93.7315 54.9458 93.866 54.9458 94.0543 54.9458C94.2695 54.9458 94.4309 54.9458 94.5655 54.9458C94.7 54.9458 94.7807 54.9727 94.8614 54.9727C94.9421 54.9997 94.969 55.0267 95.0228 55.0536C95.0497 55.0806 95.0766 55.1345 95.1035 55.2154L97.202 61.3894Z" fill="#C6007F"/>
<path d="M12.51 37.6111C16.3841 38.9591 20.016 38.7704 22.2759 38.366C26.4997 37.6111 31.9611 34.7802 34.8936 29.7385C37.5301 25.209 38.122 20.9492 37.0997 20.9492C37.0459 20.9492 36.9921 20.9492 36.9382 20.9762C35.8352 21.3536 35.4317 23.0522 34.1403 25.5056C32.822 28.013 31.2078 30.6821 29.0825 31.8414C24.8855 34.1331 22.814 31.9762 19.8546 34.7802C22.6795 31.7606 23.9708 33.7017 28.0063 31.8954C30.885 30.6012 30.8581 29.0914 29.7281 28.687C28.6789 28.3096 27.253 29.4958 23.8363 29.4958C23.2175 29.4958 22.4911 29.361 21.6302 29.2532C19.8277 28.9836 17.4602 28.714 14.447 29.7115C9.81966 31.2483 7.55978 34.6723 6.61816 40.3341C6.64507 40.3341 9.84657 36.6944 12.51 37.6111Z" fill="url(#paint0_linear_1724_820)"/>
<path d="M34.3826 20.8145C34.275 20.8145 34.1405 20.8414 34.006 20.9223C32.7415 21.6502 33.0643 24.6429 31.208 29.2263C32.5263 27.4738 33.7638 25.1282 34.4095 23.3757C34.8938 22.2434 35.2435 21.4346 35.2435 21.4346C35.2435 21.4346 34.9207 20.8145 34.3826 20.8145Z" fill="url(#paint1_linear_1724_820)"/>
<path d="M31.8266 21.7578C31.6652 21.7578 31.5037 21.8117 31.3423 21.9465C30.2124 22.8093 31.1809 26.1524 30.885 28.6059C31.2347 27.6623 31.5307 26.6377 31.7459 25.6941C32.2301 23.9956 32.553 22.1622 32.553 22.1622C32.553 22.1622 32.257 21.7578 31.8266 21.7578Z" fill="url(#paint2_linear_1724_820)"/>
<path d="M30.2395 23.4567C30.2395 23.4567 30.0512 23.2949 29.7821 23.2949C29.6207 23.2949 29.4324 23.3488 29.2441 23.5645C28.4908 24.3734 30.105 26.2606 30.4278 28.1748C30.5623 27.2851 30.2664 24.8047 30.2395 23.4567Z" fill="url(#paint3_linear_1724_820)"/>
<path d="M18.6448 0.808594C15.6854 0.808594 12.6722 1.50958 9.87426 3.01939C0.727122 7.92628 -2.6627 19.4116 2.28752 28.6592C2.50274 29.0636 2.74487 29.4681 2.987 29.8725C3.41746 30.169 3.95552 30.196 4.41288 29.9534C5.08546 29.6029 5.24688 29.1715 5.00475 28.2548C4.76262 26.8259 4.19765 25.8283 7.61438 23.1053C9.30929 21.7572 12.5915 21.3528 13.1296 24.1837C13.2103 24.6151 13.1296 25.0465 12.8336 25.37C12.7529 25.4509 12.6722 25.5587 12.5915 25.6396C12.1341 26.071 12.6722 26.6102 13.0489 26.2058C13.1027 26.1519 13.2103 26.0979 13.291 26.0171C13.3717 25.9362 13.4793 25.8823 13.56 25.8283C15.0128 24.7499 15.7661 25.4778 16.5194 25.9092C16.9498 26.2327 17.5148 26.2867 17.9722 26.044C18.6448 25.6935 18.8869 24.8577 18.5102 24.1837C18.1605 23.5366 17.3803 23.267 16.7077 23.5906C16.0351 23.7523 15.1473 23.9141 14.4478 23.4827C13.856 23.1322 13.5331 22.593 13.3986 22.0538C13.2103 21.3259 13.8291 20.3283 14.4478 19.87C14.6631 19.7082 14.9321 19.6004 15.2011 19.5464C16.4925 19.3038 17.1651 20.3822 18.2412 20.8136C18.8062 21.0293 19.129 21.1371 19.694 20.8945C20.0437 20.7597 20.3397 20.5979 20.4473 20.7327C20.7163 21.1911 19.8554 21.2989 20.3128 21.5955C20.4742 21.7033 20.6625 21.7033 20.8239 21.7572C21.2813 21.7842 21.362 21.4067 21.4965 21.218C21.6579 21.1102 22.1691 20.8406 22.3036 20.7327C22.5188 20.517 22.6803 20.1665 22.2498 20.2744C21.8462 20.5709 21.093 20.4631 20.9315 20.0317C20.8777 19.8969 20.7701 19.9239 20.6894 19.9508C20.528 20.0048 20.4204 19.9778 20.232 19.843C20.0706 19.7621 20.0437 19.7891 19.9899 19.8969C19.8285 20.3013 19.3442 20.544 18.8062 20.3553C18.1605 20.1396 17.8107 19.3577 17.8107 18.7376C17.8107 18.1984 17.9991 17.6322 18.4026 17.1469C18.5102 17.0391 18.6448 16.9312 18.7793 16.8503C19.3711 16.5268 20.0706 16.4729 20.3128 15.691C20.3666 15.5562 20.259 15.5023 20.1782 15.5832C19.8554 15.9337 19.1828 16.3111 18.4564 15.9337C18.4026 15.9067 18.3757 15.8528 18.3757 15.7719C18.3757 15.4484 18.4564 15.1248 18.6717 14.8552C18.2681 8.27677 28.6259 3.50469 33.2802 12.4827C33.3071 12.5636 33.3609 12.6714 33.4147 12.7523C33.4416 12.8062 33.4685 12.8332 33.4954 12.8871C33.5761 12.9949 33.6568 13.0758 33.7375 13.1567C34.168 13.5341 34.7868 13.615 35.271 13.3454C35.7284 13.1028 35.9974 12.6175 35.9705 12.1322C35.7822 11.7008 35.567 11.2694 35.3517 10.865C31.935 4.47528 25.3975 0.808594 18.6448 0.808594Z" fill="url(#paint4_linear_1724_820)"/>
<path d="M20.6348 17.8215C20.581 18.1989 20.877 18.2798 21.1191 18.2798C21.3881 18.2798 21.3612 18.145 21.2267 18.0102C21.0922 17.8754 20.877 17.7406 20.7424 17.7406C20.6886 17.7136 20.6348 17.7406 20.6348 17.8215Z" fill="url(#paint5_linear_1724_820)"/>
<path d="M20.0161 18.0634C20.339 18.1982 20.3659 18.0364 20.1776 17.7938C20.1237 17.7399 20.0968 17.7129 20.043 17.7129C19.9085 17.7129 19.8278 17.9825 20.0161 18.0634Z" fill="url(#paint6_linear_1724_820)"/>
<path d="M22.8408 15.8798C22.8408 17.6322 24.8586 18.1714 26.0154 16.6077C26.2306 16.3381 26.0423 16.3381 25.854 16.4459C24.5357 17.1469 23.621 16.6616 23.056 15.718C23.0291 15.6641 23.0022 15.6641 22.9753 15.6641C22.8677 15.6641 22.8408 15.7989 22.8408 15.8798Z" fill="url(#paint7_linear_1724_820)"/>
<path d="M29.9704 16.3387C30.1856 16.3927 30.3739 16.5814 30.5353 16.7971C30.8851 17.2554 30.9658 17.6329 30.8313 18.1721C30.7775 18.3878 30.6429 18.5765 30.5084 18.7922C30.4815 18.8191 30.4546 18.8731 30.4277 18.9V19.2236H30.1049C29.782 19.5201 29.4861 19.6819 29.8089 19.628C30.1049 19.574 30.5084 19.4932 30.9389 18.9C31.1272 18.6304 31.3424 18.3069 31.3693 17.9294C31.4231 17.3632 31.2079 16.824 30.8313 16.4196C30.6967 16.2848 30.5084 16.15 30.2932 16.123C30.2663 16.123 30.2394 16.123 30.2125 16.123C29.9704 16.15 29.8896 16.2848 29.9704 16.3387Z" fill="url(#paint8_linear_1724_820)"/>
<path d="M30.401 18.9004C30.2933 19.0082 30.1857 19.143 30.0781 19.2239H30.401V18.9004Z" fill="url(#paint9_linear_1724_820)"/>
<path d="M30.401 18.9004C30.2933 19.0082 30.1857 19.143 30.0781 19.2239H30.401V18.9004Z" fill="url(#paint10_linear_1724_820)"/>
<path d="M133.279 31.705C135.405 31.705 137.073 31.2197 138.31 30.2761C139.548 29.3055 140.14 27.8765 140.14 25.9353C140.14 23.9942 139.521 22.5652 138.31 21.5946C137.073 20.651 135.405 20.1657 133.279 20.1657V31.705ZM121.791 21.5946C120.554 22.5383 119.935 23.9942 119.935 25.9353C119.935 27.8765 120.554 29.3324 121.791 30.2761C123.029 31.2197 124.697 31.705 126.822 31.705V20.1657C124.697 20.1657 123.002 20.651 121.791 21.5946ZM116.761 34.0775C114.312 32.379 113.102 29.656 113.102 25.9353C113.102 22.2147 114.312 19.5187 116.761 17.8201C119.209 16.1216 122.491 15.2588 126.634 15.2588V13.4794C126.634 13.0211 126.795 12.6167 127.145 12.2662C127.495 11.9426 127.899 11.7539 128.383 11.7539H131.719C132.203 11.7539 132.633 11.9157 132.956 12.2662C133.279 12.5897 133.467 12.9941 133.467 13.4794V15.2588C137.611 15.2588 140.893 16.1216 143.341 17.8201C145.789 19.5187 147 22.2147 147 25.9353C147 29.656 145.789 32.379 143.341 34.0775C140.893 35.7761 137.611 36.6388 133.467 36.6388V38.4183C133.467 38.8766 133.306 39.281 132.956 39.6045C132.607 39.9281 132.203 40.0898 131.719 40.0898H128.383C127.925 40.0898 127.495 39.9281 127.145 39.6045C126.795 39.281 126.607 38.8766 126.607 38.4183V36.6388C122.491 36.6388 119.209 35.7761 116.761 34.0775ZM85.9831 33.8349H98.7891V18.0628H93.4084C92.2785 18.0628 91.3368 18.3863 90.5836 19.0064C89.8303 19.6265 89.3191 20.5162 89.0501 21.6486L85.9831 33.8349ZM75.8674 37.2589V35.5065C75.8674 35.0481 76.0288 34.6437 76.3517 34.3202C76.6745 33.9967 77.0781 33.8349 77.5354 33.8349H78.9344L82.3242 20.0579C83.4811 15.2858 87.409 12.9132 94.1079 12.9132H103.901C104.358 12.9132 104.762 13.075 105.111 13.3985C105.434 13.7221 105.623 14.1265 105.623 14.5848V37.2859C105.623 37.7442 105.461 38.1486 105.138 38.4722C104.815 38.7957 104.412 38.9575 103.928 38.9575H77.5892C77.1319 38.9575 76.7283 38.7957 76.3786 38.4722C76.0288 38.1486 75.8674 37.7442 75.8674 37.2589ZM44.7402 37.232V14.6387C44.7402 14.1804 44.9017 13.749 45.2514 13.3985C45.6011 13.048 46.0047 12.8593 46.462 12.8593H49.8788C50.3361 12.8593 50.7397 13.0211 51.0894 13.3985C51.4123 13.749 51.6006 14.1534 51.6006 14.6387V23.3471H55.5016C56.5777 23.3471 57.4924 23.0505 58.2995 22.4844C59.1066 21.8912 59.8599 20.9745 60.5863 19.6804L63.3843 14.6657C64.0299 13.5064 64.8908 12.9132 65.9939 12.9132H70.1908C70.6482 12.9132 70.9441 13.075 71.0248 13.4255C71.0517 13.5064 71.0517 13.5872 71.0517 13.6681C71.0517 13.9377 70.9441 14.2882 70.7289 14.6657L66.801 21.8103C66.236 22.8618 65.5903 23.7246 64.8908 24.3986C64.1914 25.0726 63.2497 25.5579 62.1198 25.8275C62.9269 25.9893 63.734 26.5015 64.568 27.3373C65.402 28.1731 66.1553 29.0898 66.801 30.0604L71.3207 37.2859C71.536 37.6364 71.6436 37.933 71.6436 38.2026C71.6436 38.3104 71.6167 38.4183 71.5898 38.5261C71.4822 38.8496 71.1862 39.0114 70.702 39.0114H66.5589C66.1015 39.0114 65.5903 38.8496 65.0254 38.5261C64.4873 38.2026 64.0568 37.7981 63.7609 37.3129L60.5594 32.2442C59.8061 31.004 59.0259 30.0873 58.2457 29.4672C57.4655 28.8471 56.5508 28.5236 55.4478 28.5236H51.5468V37.3398C51.5468 37.7982 51.3854 38.2026 51.0356 38.5261C50.7128 38.8496 50.3092 39.0114 49.825 39.0114H46.4082C45.9509 39.0114 45.5473 38.8496 45.1976 38.4991C44.9017 38.1217 44.7402 37.6903 44.7402 37.232Z" fill="#C6007F"/>
<defs>
<linearGradient id="paint0_linear_1724_820" x1="31.6626" y1="42.7654" x2="-4.67855" y2="-2.41536" gradientUnits="userSpaceOnUse">
<stop stop-color="#CD007E"/>
<stop offset="0.1186" stop-color="#C52A88"/>
<stop offset="0.3606" stop-color="#AE5EA1"/>
<stop offset="0.7011" stop-color="#738DC7"/>
<stop offset="0.98" stop-color="#00A2DF"/>
<stop offset="1" stop-color="#00A2DF"/>
</linearGradient>
<linearGradient id="paint1_linear_1724_820" x1="41.3346" y1="35.2789" x2="4.35279" y2="-9.9002" gradientUnits="userSpaceOnUse">
<stop stop-color="#CD007E"/>
<stop offset="0.1186" stop-color="#C52A88"/>
<stop offset="0.3606" stop-color="#AE5EA1"/>
<stop offset="0.7011" stop-color="#738DC7"/>
<stop offset="0.98" stop-color="#00A2DF"/>
<stop offset="1" stop-color="#00A2DF"/>
</linearGradient>
<linearGradient id="paint2_linear_1724_820" x1="39.2414" y1="37.6252" x2="11.2455" y2="-7.57789" gradientUnits="userSpaceOnUse">
<stop stop-color="#CD007E"/>
<stop offset="0.1186" stop-color="#C52A88"/>
<stop offset="0.3606" stop-color="#AE5EA1"/>
<stop offset="0.7011" stop-color="#738DC7"/>
<stop offset="0.98" stop-color="#00A2DF"/>
<stop offset="1" stop-color="#00A2DF"/>
</linearGradient>
<linearGradient id="paint3_linear_1724_820" x1="37.3554" y1="38.504" x2="12.1752" y2="-6.70695" gradientUnits="userSpaceOnUse">
<stop stop-color="#CD007E"/>
<stop offset="0.1186" stop-color="#C52A88"/>
<stop offset="0.3606" stop-color="#AE5EA1"/>
<stop offset="0.7011" stop-color="#738DC7"/>
<stop offset="0.98" stop-color="#00A2DF"/>
<stop offset="1" stop-color="#00A2DF"/>
</linearGradient>
<linearGradient id="paint4_linear_1724_820" x1="34.421" y1="45.9295" x2="5.16575" y2="-2.92253" gradientUnits="userSpaceOnUse">
<stop stop-color="#CD007E"/>
<stop offset="0.4342" stop-color="#9F70AE"/>
<stop offset="0.98" stop-color="#00A2DF"/>
<stop offset="1" stop-color="#00A2DF"/>
</linearGradient>
<linearGradient id="paint5_linear_1724_820" x1="35.5121" y1="43.8989" x2="8.38137" y2="-4.1039" gradientUnits="userSpaceOnUse">
<stop stop-color="#CD007E"/>
<stop offset="0.98" stop-color="#00A2DF"/>
<stop offset="1" stop-color="#00A2DF"/>
</linearGradient>
<linearGradient id="paint6_linear_1724_820" x1="32.3631" y1="39.8128" x2="9.8119" y2="-0.220567" gradientUnits="userSpaceOnUse">
<stop stop-color="#CD007E"/>
<stop offset="0.98" stop-color="#00A2DF"/>
<stop offset="1" stop-color="#00A2DF"/>
</linearGradient>
<linearGradient id="paint7_linear_1724_820" x1="39.3446" y1="34.5213" x2="9.07967" y2="-1.99025" gradientUnits="userSpaceOnUse">
<stop stop-color="#CD007E"/>
<stop offset="0.98" stop-color="#00A2DF"/>
<stop offset="1" stop-color="#00A2DF"/>
</linearGradient>
<linearGradient id="paint8_linear_1724_820" x1="42.3608" y1="40.5936" x2="16.5531" y2="-7.2402" gradientUnits="userSpaceOnUse">
<stop stop-color="#CD007E"/>
<stop offset="0.98" stop-color="#00A2DF"/>
<stop offset="1" stop-color="#00A2DF"/>
</linearGradient>
<linearGradient id="paint9_linear_1724_820" x1="42.4264" y1="41.1109" x2="15.2323" y2="-7.8061" gradientUnits="userSpaceOnUse">
<stop stop-color="#CD007E"/>
<stop offset="0.98" stop-color="#00A2DF"/>
<stop offset="1" stop-color="#00A2DF"/>
</linearGradient>
<linearGradient id="paint10_linear_1724_820" x1="41.9176" y1="40.8332" x2="16.1097" y2="-7.0006" gradientUnits="userSpaceOnUse">
<stop stop-color="#CD007E"/>
<stop offset="0.98" stop-color="#00A2DF"/>
<stop offset="1" stop-color="#00A2DF"/>
</linearGradient>
</defs>
</svg>
