<svg width="24" height="24" viewBox="0 0 24 24" fill="none" xmlns="http://www.w3.org/2000/svg">
<path fill-rule="evenodd" clip-rule="evenodd" d="M17.539 13.7027C17.4938 13.6543 17.4394 13.6155 17.3789 13.5885C17.3184 13.5615 17.2531 13.547 17.1869 13.5457C17.1207 13.5444 17.055 13.5564 16.9935 13.5809C16.932 13.6055 16.876 13.6422 16.829 13.6887C16.829 13.6887 15.376 15.1687 15.281 15.2617C15.2578 15.286 15.2308 15.3063 15.201 15.3217C13.691 16.1177 8.23999 10.0397 9.27899 8.89674L10.834 7.30974C10.9301 7.20908 10.9842 7.07559 10.9853 6.93643C10.9864 6.79728 10.9344 6.66293 10.84 6.56074L5.75499 1.16074C5.70919 1.11126 5.65378 1.07166 5.59213 1.04435C5.53048 1.01705 5.46391 1.00263 5.3965 1.00198C5.32908 1.00132 5.26224 1.01444 5.20007 1.04054C5.13791 1.06664 5.08173 1.10516 5.03499 1.15374C2.48799 3.75774 -1.59402 6.37574 7.94398 16.5087C17.356 26.5077 20.054 22.7187 22.652 19.8077C22.7418 19.7061 22.7906 19.5746 22.7889 19.439C22.7872 19.3034 22.7352 19.1732 22.643 19.0737L17.539 13.7027Z" stroke="#4A4A4A" stroke-linecap="round" stroke-linejoin="round"/>
</svg>
