<svg width="47" height="46" viewBox="0 0 47 46" fill="none" xmlns="http://www.w3.org/2000/svg">
<g clip-path="url(#clip0_147_1180)">
<path opacity="0.13" d="M23.48 45C35.6302 45 45.48 35.1503 45.48 23C45.48 10.8497 35.6302 1 23.48 1C11.3297 1 1.47998 10.8497 1.47998 23C1.47998 35.1503 11.3297 45 23.48 45Z" stroke="black" stroke-width="2"/>
<path fill-rule="evenodd" clip-rule="evenodd" d="M24.239 31.3015C24.239 31.3015 24.711 31.2505 24.952 30.9955C25.173 30.7625 25.166 30.3215 25.166 30.3215C25.166 30.3215 25.136 28.2655 26.109 27.9615C27.068 27.6635 28.299 29.9505 29.605 30.8305C30.592 31.4955 31.341 31.3505 31.341 31.3505L34.833 31.3015C34.833 31.3015 36.658 31.1915 35.793 29.7815C35.721 29.6665 35.288 28.7395 33.198 26.8345C31.008 24.8405 31.302 25.1635 33.938 21.7145C35.543 19.6135 36.185 18.3315 35.984 17.7825C35.794 17.2585 34.613 17.3975 34.613 17.3975L30.683 17.4215C30.683 17.4215 30.392 17.3815 30.176 17.5095C29.965 17.6335 29.828 17.9235 29.828 17.9235C29.828 17.9235 29.207 19.5485 28.377 20.9305C26.627 23.8475 25.927 24.0015 25.641 23.8205C24.975 23.3975 25.141 22.1245 25.141 21.2205C25.141 18.3925 25.579 17.2145 24.291 16.9095C23.864 16.8075 23.55 16.7415 22.457 16.7295C21.055 16.7165 19.868 16.7345 19.196 17.0575C18.749 17.2715 18.403 17.7515 18.614 17.7785C18.874 17.8125 19.462 17.9345 19.774 18.3515C20.177 18.8895 20.162 20.0965 20.162 20.0965C20.162 20.0965 20.394 23.4245 19.622 23.8365C19.092 24.1205 18.366 23.5425 16.806 20.8965C16.2768 19.9766 15.8082 19.0233 15.403 18.0425C15.403 18.0425 15.287 17.7625 15.079 17.6125C14.827 17.4305 14.475 17.3735 14.475 17.3735L10.741 17.3975C10.741 17.3975 10.18 17.4125 9.97404 17.6525C9.79104 17.8645 9.96004 18.3045 9.96004 18.3045C9.96004 18.3045 12.884 25.0195 16.195 28.4035C19.231 31.5055 22.677 31.3015 22.677 31.3015H24.239Z" fill="#DEDEDE"/>
</g>
<defs>
<clipPath id="clip0_147_1180">
<rect width="47" height="46" fill="white"/>
</clipPath>
</defs>
</svg>
